<?xml version="1.0" standalone="no"?>
<!DOCTYPE svg PUBLIC "-//W3C//DTD SVG 1.1//EN" "http://www.w3.org/Graphics/SVG/1.1/DTD/svg11.dtd" >
<svg>
<metadata>
Created by FontForge 20120731 at Wed Jul  3 00:33:03 2019
 By www
Copyright (c) 2012 by Fontfabric LLC. All rights reserved.
</metadata>
<defs>
<font id="NexaW01-BookItalic" horiz-adv-x="635" >
  <font-face 
    font-family="NexaW01-BookItalic"
    font-weight="400"
    font-style="italic"
    font-stretch="normal"
    units-per-em="1000"
    panose-1="2 0 0 0 0 0 0 0 0 0"
    ascent="800"
    descent="-200"
    x-height="494"
    cap-height="700"
    bbox="-179 -255 1118 921"
    underline-thickness="50"
    underline-position="-125"
    unicode-range="U+000D-2212"
  />
<missing-glyph horiz-adv-x="645" 
d="M278 121q0 -14 8.5 -21t19.5 -7q15 0 27.5 10t12.5 30q0 14 -9 21t-20 7q-14 0 -26.5 -10t-12.5 -30zM255 446q5 28 19.5 47t34.5 30.5t43.5 16t45.5 4.5q21 0 42 -3.5t38.5 -12.5t28.5 -25t11 -41q0 -28 -8 -46t-21 -29.5t-29.5 -18t-34.5 -12.5q-29 -9 -49.5 -20.5
t-35.5 -29t-24.5 -42t-15.5 -59.5h49q5 28 10 45.5t14 29t23.5 19t37.5 15.5q20 7 43 16t43 26t33.5 44t13.5 70q0 34 -14 56.5t-36.5 36.5t-51.5 20t-59 6q-33 0 -66 -7.5t-60.5 -25t-47 -44.5t-26.5 -66h49zM160 700h538l-123 -700h-538z" />
    <glyph glyph-name=".notdef" horiz-adv-x="645" 
d="M278 121q0 -14 8.5 -21t19.5 -7q15 0 27.5 10t12.5 30q0 14 -9 21t-20 7q-14 0 -26.5 -10t-12.5 -30zM255 446q5 28 19.5 47t34.5 30.5t43.5 16t45.5 4.5q21 0 42 -3.5t38.5 -12.5t28.5 -25t11 -41q0 -28 -8 -46t-21 -29.5t-29.5 -18t-34.5 -12.5q-29 -9 -49.5 -20.5
t-35.5 -29t-24.5 -42t-15.5 -59.5h49q5 28 10 45.5t14 29t23.5 19t37.5 15.5q20 7 43 16t43 26t33.5 44t13.5 70q0 34 -14 56.5t-36.5 36.5t-51.5 20t-59 6q-33 0 -66 -7.5t-60.5 -25t-47 -44.5t-26.5 -66h49zM160 700h538l-123 -700h-538z" />
    <glyph glyph-name="glyph1" horiz-adv-x="0" 
 />
    <glyph glyph-name="glyph1" horiz-adv-x="0" 
 />
    <glyph glyph-name="uni000D" unicode="&#xd;" horiz-adv-x="263" 
 />
    <glyph glyph-name="space" unicode=" " horiz-adv-x="263" 
 />
    <glyph glyph-name="exclam" unicode="!" horiz-adv-x="252" 
d="M232 700l-96 -547h-71q12 71 24 139t24 134.5t24 134.5t24 139h71zM33 36q0 29 19 43t40 14q17 0 29.5 -10t12.5 -30q0 -29 -19.5 -43t-40.5 -14q-17 0 -29 10t-12 30z" />
    <glyph glyph-name="quotedbl" unicode="&#x22;" horiz-adv-x="359" 
d="M207 702l-46 -259h-62l46 259h62zM356 702l-46 -259h-61l46 259h61z" />
    <glyph glyph-name="numbersign" unicode="#" horiz-adv-x="683" 
d="M406 700l-69 -164h178l70 164h68l-70 -164h102l-10 -57h-116l-112 -258h107l-10 -59h-120l-69 -162h-68l69 162h-178l-69 -162h-68l69 162h-94l10 59h107l113 258h-99l10 57h112l69 164h68zM312 481l-114 -262h183l113 262h-182z" />
    <glyph glyph-name="dollar" unicode="$" horiz-adv-x="649" 
d="M576 552q-9 25 -28.5 43t-44.5 29.5t-53.5 17.5t-56.5 6q-33 0 -73.5 -6.5t-75 -23t-58 -44t-23.5 -69.5q0 -27 15.5 -45.5t41 -31t59.5 -20.5t71 -15q50 -9 98 -20.5t83 -32.5t53 -56t8 -92q-9 -50 -37.5 -86.5t-68 -60.5t-85.5 -36.5t-90 -14.5l-18 -98h-64l17 97
q-39 2 -76.5 11t-69.5 26.5t-56 44t-36 63.5l63 31q10 -30 33 -51.5t53 -34.5t64.5 -19t66.5 -6q33 0 71 5.5t72.5 20.5t60 40.5t32.5 66.5q7 36 -7.5 59t-43 38.5t-66 24.5t-77.5 16q-44 8 -86.5 18t-75.5 27.5t-53.5 45.5t-20.5 72q0 55 26 94.5t67 65.5t90 39.5t96 16.5
l17 97h65l-17 -97q33 -3 64 -11t57.5 -23t47 -37.5t31.5 -54.5z" />
    <glyph glyph-name="percent" unicode="%" horiz-adv-x="767" 
d="M718 700l-575 -700h-73l576 700h72zM264 699q52 0 82.5 -22.5t42 -56t5 -72.5t-30 -72.5t-62 -56t-90.5 -22.5q-34 0 -59 10.5t-41 28t-23.5 40.5t-7.5 48q0 31 12.5 62t36 56t57.5 41t78 16zM254 640q-27 0 -48 -9.5t-35.5 -24.5t-22 -34t-7.5 -38q0 -31 19.5 -54.5
t61.5 -23.5q26 0 46.5 9.5t35 24.5t22 34t7.5 38q0 30 -19 54t-60 24zM574 294q52 0 82.5 -22.5t42 -56t5 -72.5t-30 -72.5t-62 -56t-90.5 -22.5q-34 0 -59 10.5t-41 28t-23.5 40.5t-7.5 48q0 31 12.5 62t36 56t57.5 41t78 16zM563 235q-26 0 -47 -9.5t-35.5 -24.5t-22 -34
t-7.5 -38q0 -31 19.5 -54.5t61.5 -23.5q25 0 46 9.5t35 24.5t22 34t8 38q0 30 -19 54t-61 24z" />
    <glyph glyph-name="ampersand" unicode="&#x26;" horiz-adv-x="690" 
d="M329 330q-62 0 -104 -15.5t-67.5 -39t-37 -52t-11.5 -55.5q0 -54 38 -85t126 -31q30 0 64 8t65 25t53.5 42.5t28.5 60.5l25 142h-180zM548 188q-3 -15 -5 -30t-2 -29q0 -32 14 -54t53 -22l-10 -54q-5 -1 -9.5 -1h-8.5q-37 0 -59.5 20.5t-27.5 66.5q-18 -23 -46.5 -40.5
t-60 -29.5t-62.5 -18t-53 -6q-112 0 -172.5 39t-60.5 123q0 41 13.5 75.5t36.5 61t53 45.5t62 29q-45 14 -69.5 49t-24.5 80q0 52 22 92.5t60 67.5t88.5 41t107.5 14q39 0 76 -5.5t66 -20.5t47 -41t18 -67q0 -16 -3 -35h-59q1 6 1.5 11.5t0.5 10.5q0 28 -13 45.5t-35 27.5
t-50 14t-58 4q-53 0 -91 -13t-63 -34t-36.5 -48.5t-11.5 -56.5q0 -31 14 -53t37.5 -35.5t53.5 -20t62 -6.5h304l-10 -55h-64z" />
    <glyph glyph-name="quotesingle" unicode="'" horiz-adv-x="208" 
d="M206 703l-46 -259h-61l46 259h61z" />
    <glyph glyph-name="parenleft" unicode="(" horiz-adv-x="329" 
d="M378 704q-48 -32 -90 -72.5t-75 -88.5t-56.5 -102.5t-35.5 -112.5q-11 -54 -10 -110.5t14.5 -110.5t41.5 -102.5t72 -87.5l-45 -51q-49 40 -81 90t-49 106t-21 115t3 116q9 67 33.5 133t63.5 126t91.5 111t118.5 90z" />
    <glyph glyph-name="parenright" unicode=")" horiz-adv-x="330" 
d="M138 752q39 -29 68 -71.5t47.5 -92t27.5 -103.5t9 -106q0 -74 -19 -145.5t-57 -137.5t-95 -124.5t-133 -106.5l-29 52q130 85 197 202.5t67 260.5q0 94 -30 180t-95 146z" />
    <glyph glyph-name="asterisk" unicode="*" horiz-adv-x="363" 
d="M262 472l-40 77l-67 -77l-39 32l72 72l-79 22l25 51l77 -29l12 85h55l-19 -85l93 28l6 -50l-93 -22l46 -72z" />
    <glyph glyph-name="plus" unicode="+" horiz-adv-x="496" 
d="M229 373l29 168h66l-29 -168h168l-11 -60h-168l-30 -172h-66l30 172h-168l11 60h168z" />
    <glyph glyph-name="comma" unicode="," horiz-adv-x="230" 
d="M120 44q0 -22 -20 -53.5t-46 -81.5h-50l43 87q-12 4 -18.5 13.5t-4.5 26.5q5 23 22 34t35 11q17 0 28 -9t11 -28z" />
    <glyph glyph-name="hyphen" unicode="-" horiz-adv-x="496" 
d="M74 319h355l-11 -61h-355z" />
    <glyph glyph-name="period" unicode="." horiz-adv-x="228" 
d="M23 33q0 28 19 41.5t39 13.5q17 0 28 -9.5t11 -29.5q0 -27 -18 -41t-38 -14q-16 0 -28.5 9.5t-12.5 29.5z" />
    <glyph glyph-name="slash" unicode="/" horiz-adv-x="496" 
d="M547 761l-513 -843h-69l512 843h70z" />
    <glyph glyph-name="zero" unicode="0" horiz-adv-x="680" 
d="M155 427l-27 -154q-3 -15 -4 -28.5t-1 -26.5q0 -41 12.5 -71.5t35 -51.5t53.5 -31.5t68 -10.5q39 0 80 13.5t76 40.5t61 68.5t36 97.5l27 154q2 14 3 27t1 25q0 83 -45.5 126t-118.5 43q-40 0 -81.5 -13t-77 -40t-62 -69t-36.5 -99zM60 274l27 152q12 71 45.5 124.5
t78.5 89t98 53.5t105 18q46 0 88 -14t74 -41.5t51 -69.5t19 -98q0 -29 -6 -62l-27 -152q-13 -71 -46 -124.5t-78.5 -89t-98 -53.5t-104.5 -18q-46 0 -88 14t-74 41.5t-51 69.5t-19 98q0 29 6 62z" />
    <glyph glyph-name="one" unicode="1" horiz-adv-x="399" 
d="M7 57h134l99 562l-132 -32l10 58l201 55l-113 -643h130l-10 -57h-329z" />
    <glyph glyph-name="two" unicode="2" horiz-adv-x="667" 
d="M110 510q12 57 42.5 95.5t72 61.5t90.5 32.5t97 9.5q44 0 86.5 -9t76.5 -29t54.5 -53t20.5 -81q0 -66 -28.5 -111t-73.5 -72.5t-100 -40t-109 -12.5q-34 0 -72 -5t-71.5 -20t-58.5 -41.5t-33 -69.5l-18 -100h478l-11 -65h-543q8 41 14.5 81.5t14.5 82.5q10 59 41.5 97
t74.5 60.5t93.5 31.5t100.5 9q30 0 67.5 6.5t71.5 22t59.5 42.5t32.5 68q7 42 -7 70t-40.5 45.5t-62 25t-69.5 7.5q-33 0 -69 -6t-67.5 -21.5t-54.5 -42.5t-31 -69h-69z" />
    <glyph glyph-name="three" unicode="3" horiz-adv-x="662" 
d="M340 330h-115l10 56h110q46 0 84.5 11t67 29.5t46 42t22.5 48.5q4 24 -3.5 48t-28 43t-55.5 31t-84 12q-30 0 -66 -5t-68.5 -19.5t-56.5 -39.5t-31 -64h-66q9 55 40 91t73.5 57t91 29.5t93.5 8.5q108 0 167 -45.5t59 -120.5q0 -33 -12.5 -63.5t-34.5 -55.5t-51.5 -42.5
t-62.5 -24.5q51 -11 85 -45.5t34 -89.5q0 -51 -22.5 -93t-63.5 -73t-98 -48t-126 -17q-47 0 -94.5 8.5t-84 30.5t-55.5 59.5t-9 95.5h65q-7 -44 10.5 -69.5t47 -39.5t66 -18t66.5 -4q52 0 94.5 13t72.5 34.5t46.5 50t16.5 59.5q0 22 -10.5 43.5t-32.5 38.5t-56 27t-81 10z
" />
    <glyph glyph-name="four" unicode="4" horiz-adv-x="652" 
d="M588 700l-85 -480h97l-10 -59h-97l-28 -161h-64l28 161h-418l-3 51l502 488h78zM439 220l72 405l-420 -405h348z" />
    <glyph glyph-name="five" unicode="5" horiz-adv-x="651" 
d="M623 636h-417l-36 -205h198q59 0 101.5 -13.5t69.5 -37.5t40 -56.5t13 -70.5q0 -54 -22 -101.5t-63 -82.5t-99 -55t-131 -20q-50 0 -97.5 9.5t-82 32.5t-51.5 62.5t-7 98.5h67q-8 -45 7 -72.5t43 -42.5t63 -20t68 -5q54 0 97 14t74 39t47.5 59t16.5 73q0 28 -7 51
t-25.5 39.5t-50.5 26t-82 9.5h-262q15 85 29 165t30 167h481z" />
    <glyph glyph-name="six" unicode="6" horiz-adv-x="687" 
d="M185 508l-32 -169q22 25 50 42.5t58.5 28.5t61.5 16t59 5q46 0 89.5 -10t77 -31.5t54 -57t19.5 -86.5q-1 -69 -30.5 -117t-76 -79t-104 -45t-112.5 -14q-51 0 -99 12.5t-82.5 39.5t-51 69t-5.5 101l55 295q10 52 40.5 90t73.5 63t94 37.5t102 12.5q54 0 100 -10t78 -31.5
t48 -55t9 -80.5h-70q4 32 -8.5 53.5t-36.5 35t-58 19.5t-73 6q-33 0 -70.5 -8t-70.5 -24.5t-57.5 -43.5t-31.5 -64zM311 56q39 0 81.5 9.5t77.5 30.5t58 55t23 84q0 37 -13.5 62.5t-37.5 41.5t-56.5 23t-70.5 7q-36 0 -75.5 -9.5t-74 -29t-60 -49t-32.5 -69.5
q-9 -43 2.5 -72.5t37 -48t62 -27t78.5 -8.5z" />
    <glyph glyph-name="seven" unicode="7" horiz-adv-x="555" 
d="M48 0l467 634h-428l12 66h507l-2 -51l-477 -649h-79z" />
    <glyph glyph-name="eight" unicode="8" horiz-adv-x="703" 
d="M359 332q-31 0 -71 -7t-76.5 -23.5t-65 -44t-35.5 -67.5q-7 -38 8 -65t43.5 -44.5t66.5 -26t79 -8.5q40 0 81.5 8t76 25.5t59 45t31.5 65.5q7 40 -11.5 67t-49 43.5t-68 24t-68.5 7.5zM37 159q0 39 15 72t40 59t57.5 44t67.5 27q-48 18 -77.5 51.5t-29.5 83.5
q0 60 28.5 101.5t73.5 67.5t101 37.5t112 11.5q46 0 91 -8.5t79.5 -28t56 -51.5t21.5 -79q0 -36 -13 -65.5t-36 -53t-53.5 -40.5t-64.5 -27q25 -7 47.5 -21t38.5 -33.5t25.5 -43.5t9.5 -51q0 -63 -28.5 -106t-75 -70t-106 -39t-121.5 -12q-52 0 -99 9t-82.5 29.5t-56.5 53.5
t-21 82zM180 505q0 -32 18.5 -54t46.5 -35.5t61 -19t63 -5.5q31 0 69 6.5t72 21.5t59 39.5t32 61.5q7 38 -6.5 64t-40.5 41.5t-64 22.5t-76 7q-43 0 -85 -8t-75 -26t-53.5 -46.5t-20.5 -69.5z" />
    <glyph glyph-name="nine" unicode="9" horiz-adv-x="693" 
d="M530 194l29 169q-21 -25 -49.5 -42.5t-59 -28.5t-62 -16t-59.5 -5q-45 0 -88.5 10t-77.5 31.5t-55 57t-21 86.5q0 69 29.5 117t75.5 79t103 45t113 14q51 0 99 -12.5t83 -39.5t52 -69t7 -101l-52 -295q-9 -52 -39.5 -90t-74 -63.5t-94.5 -38t-102 -12.5q-54 0 -100.5 10
t-80.5 32t-51 55.5t-11 80.5h72q-3 -30 10 -51.5t38 -35.5t59.5 -21t73.5 -7q33 0 71 8t72 25t58.5 43.5t31.5 64.5zM398 646q-39 0 -81.5 -9.5t-77.5 -30.5t-58 -55t-24 -84q-1 -37 15 -62.5t41.5 -41.5t58 -23t65.5 -7q36 0 75.5 10t73.5 29.5t59.5 49t33.5 69.5
q8 43 -5.5 72.5t-40.5 48t-63 26.5t-72 8z" />
    <glyph glyph-name="colon" unicode=":" horiz-adv-x="236" 
d="M77 328q0 27 18.5 40.5t38.5 13.5q16 0 28 -9.5t12 -28.5q0 -28 -18.5 -41.5t-38.5 -13.5q-16 0 -28 9.5t-12 29.5zM26 35q0 27 18.5 40.5t38.5 13.5q15 0 27 -9.5t12 -28.5q0 -28 -18.5 -41.5t-38.5 -13.5q-16 0 -27.5 9.5t-11.5 29.5z" />
    <glyph glyph-name="semicolon" unicode=";" horiz-adv-x="237" 
d="M121 44q0 -22 -20 -53.5t-46 -81.5h-50l43 87q-11 4 -17.5 13.5t-4.5 26.5q4 21 21 33.5t37 12.5q16 0 26.5 -10t10.5 -28zM78 328q0 27 18.5 40.5t38.5 13.5q16 0 28 -9.5t12 -28.5q0 -28 -18.5 -41.5t-38.5 -13.5q-16 0 -28 9.5t-12 29.5z" />
    <glyph glyph-name="less" unicode="&#x3c;" horiz-adv-x="367" 
d="M285 150l-54 -46l-181 196l6 33l251 197l33 -47l-212 -166z" />
    <glyph glyph-name="equal" unicode="=" horiz-adv-x="558" 
d="M65 243h407l-11 -63h-407zM102 450h407l-12 -63h-407z" />
    <glyph glyph-name="greater" unicode="&#x3e;" horiz-adv-x="365" 
d="M245 317l-154 168l50 45l181 -197l-5 -33l-251 -196l-37 45z" />
    <glyph glyph-name="question" unicode="?" horiz-adv-x="606" 
d="M178 37q0 29 19.5 44t40.5 15q17 0 28.5 -10.5t11.5 -30.5q0 -29 -19 -43.5t-39 -14.5q-18 0 -30 10t-12 30zM74 508q7 57 34.5 96t68 63.5t89 35t97.5 10.5q45 0 88 -10t77 -31.5t55 -55.5t21 -83q0 -52 -15.5 -88.5t-41 -62t-58.5 -42t-67 -29.5q-29 -11 -56 -21.5
t-48 -27t-35 -41.5t-18 -65h-68q5 51 22.5 85t44.5 58t61.5 40.5t72.5 32.5q27 11 51 23.5t43 30t30 41.5t11 58q0 36 -16.5 60t-43 38.5t-58 20t-61.5 5.5q-32 0 -67 -6t-65 -22t-52 -43.5t-27 -69.5h-69z" />
    <glyph glyph-name="at" unicode="@" horiz-adv-x="899" 
d="M513 624q-82 0 -155 -30t-128 -82.5t-87.5 -124.5t-32.5 -156q0 -63 20.5 -113t58 -85t89.5 -53.5t116 -18.5q42 0 81.5 10t77.5 28l21 -47q-49 -27 -96.5 -38t-93.5 -11q-78 0 -140.5 22.5t-106.5 64t-67.5 100.5t-23.5 132q0 96 37 180.5t101.5 146.5t151.5 98t187 36
q77 0 139 -18.5t106 -56t68 -95.5t24 -137q0 -46 -9.5 -102.5t-31.5 -106t-58.5 -83t-89.5 -33.5q-14 0 -27.5 5t-22.5 15.5t-13.5 26t-0.5 37.5q-19 -24 -43.5 -42.5t-51 -31t-54.5 -19t-55 -6.5q-55 0 -94.5 16t-65.5 44.5t-38.5 66.5t-12.5 83q0 64 24.5 117t66 91.5
t95.5 60t113 21.5q27 0 53.5 -8t50 -21.5t41 -33t25.5 -41.5l14 79l56 -1l-65 -368q-4 -18 2 -26t16 -8q19 0 34.5 13.5t28.5 36t22.5 50.5t16 57.5t10 57t3.5 48.5q0 69 -20 117.5t-57.5 78.5t-90.5 43.5t-118 13.5zM480 474q-45 0 -85.5 -16.5t-71 -45.5t-48 -69
t-17.5 -87q0 -33 8 -61.5t26 -49.5t48 -33.5t74 -12.5q53 0 94 19.5t69.5 50.5t43.5 70t15 79q0 31 -9 59t-28.5 49.5t-49 34.5t-69.5 13z" />
    <glyph glyph-name="A" unicode="A" horiz-adv-x="744" 
d="M558 162h-408l-101 -162h-75l437 700h70l191 -700h-71zM189 226h352l-104 399z" />
    <glyph glyph-name="B" unicode="B" horiz-adv-x="704" 
d="M127 66h228q30 0 63.5 5.5t63 19.5t51.5 38t29 61q6 36 -6 62t-35 42.5t-54 24t-62 7.5h-233zM184 390h233q35 0 67.5 8t58 24.5t41 43t15.5 64.5q0 29 -11.5 49t-31 32.5t-46 18t-55.5 5.5h-228zM466 700q42 0 79 -9.5t64.5 -29t44 -49.5t16.5 -72q0 -66 -38.5 -115.5
t-101.5 -69.5q27 -8 46.5 -23.5t32 -35t19 -41t6.5 -42.5q0 -60 -26 -101t-67 -66t-93.5 -35.5t-104.5 -10.5h-298l123 700h298z" />
    <glyph glyph-name="C" unicode="C" horiz-adv-x="708" 
d="M637 95q-63 -54 -132.5 -80t-140.5 -26q-79 0 -137 23t-96 63.5t-56.5 94t-18.5 115.5q0 81 29.5 159t84.5 137t135.5 95t184.5 36q34 0 67.5 -6.5t64 -19.5t56 -33t43.5 -47l-50 -42q-35 42 -84.5 63t-106.5 21q-83 0 -148.5 -30.5t-110.5 -80t-69.5 -113.5t-24.5 -130
q0 -51 15 -95t46 -76t77.5 -50.5t109.5 -18.5q57 0 116 22t109 64z" />
    <glyph glyph-name="D" unicode="D" horiz-adv-x="749" 
d="M415 700q78 0 134 -24t92 -64t53.5 -92t17.5 -108q0 -71 -25.5 -144t-77 -132.5t-130.5 -97.5t-187 -38h-247l123 700h247zM126 65h177q82 0 144.5 30.5t105 79t64.5 107.5t22 116q0 45 -11 87.5t-37.5 75.5t-72 53t-114.5 20h-177z" />
    <glyph glyph-name="E" unicode="E" horiz-adv-x="654" 
d="M547 0h-502q31 176 61.5 350t61.5 350h493l-11 -66h-423l-44 -251h404l-12 -65h-404l-44 -252h432z" />
    <glyph glyph-name="F" unicode="F" horiz-adv-x="627" 
d="M45 0l123 700h479l-11 -64h-409l-47 -268h394l-12 -66h-394l-53 -302h-70z" />
    <glyph glyph-name="G" unicode="G" horiz-adv-x="748" 
d="M680 562q-35 43 -89.5 63.5t-110.5 20.5q-84 0 -149.5 -29.5t-110.5 -78.5t-68.5 -111.5t-23.5 -128.5q0 -49 12.5 -92.5t42 -76.5t77 -52t116.5 -19q53 0 108 18.5t106 57.5l32 177h-229l11 65h296l-48 -271q-64 -56 -135 -85.5t-153 -29.5q-80 0 -137.5 23.5t-95.5 64
t-56 94t-18 113.5q0 91 31.5 169t89 135.5t137.5 90t176 32.5q70 0 132 -26t107 -79z" />
    <glyph glyph-name="H" unicode="H" horiz-adv-x="757" 
d="M539 0l55 310h-424l-55 -310h-70l123 700h70l-57 -324h424l57 324h70l-123 -700h-70z" />
    <glyph glyph-name="I" unicode="I" horiz-adv-x="263" 
d="M45 0l123 700h70l-123 -700h-70z" />
    <glyph glyph-name="J" unicode="J" horiz-adv-x="681" 
d="M664 700l-75 -427q-12 -66 -40.5 -118t-71.5 -88.5t-99.5 -56t-123.5 -19.5q-62 0 -110.5 19.5t-80 56t-43.5 88t-1 116.5h67q-9 -49 0.5 -88.5t33.5 -67.5t61 -43t85 -15t90 14.5t75 42.5t56 68t32 91l64 364h-257l11 63h327z" />
    <glyph glyph-name="K" unicode="K" horiz-adv-x="604" 
d="M646 695l-400 -336l308 -354l-1 -5h-84l-294 339l-60 -339h-70l123 700h70l-55 -315l376 315h87v-5z" />
    <glyph glyph-name="L" unicode="L" horiz-adv-x="568" 
d="M238 700l-111 -634h389l-12 -66h-459l123 700h70z" />
    <glyph glyph-name="M" unicode="M" horiz-adv-x="876" 
d="M761 586l-326 -373h-20l-195 387l-105 -600h-70l123 700h77l197 -386l325 386h84l-123 -700h-70z" />
    <glyph glyph-name="N" unicode="N" horiz-adv-x="756" 
d="M564 132l38 232l59 336h70l-123 -700h-42l-352 574l-36 -218l-63 -356h-70l123 700h44z" />
    <glyph glyph-name="O" unicode="O" horiz-adv-x="812" 
d="M482 712q89 0 150 -30.5t96 -81.5t45.5 -116.5t-2.5 -135.5q-12 -69 -45.5 -134t-86.5 -115.5t-124.5 -81t-160.5 -30.5q-77 0 -133.5 25t-93 67t-54 96.5t-17.5 113.5q0 82 30.5 159t86 135.5t134 93.5t175.5 35zM125 299q-1 -49 12 -93.5t41 -78.5t72.5 -54t106.5 -20
q72 0 130 25t101.5 66t72 94.5t39.5 109.5q12 59 5.5 113t-33.5 95t-75 65.5t-120 24.5q-80 0 -144.5 -28.5t-110 -76t-70.5 -110.5t-27 -132z" />
    <glyph glyph-name="P" unicode="P" horiz-adv-x="678" 
d="M168 299h243q55 0 95.5 25t65.5 63t32.5 81.5t-4 81.5t-43.5 63t-87 25h-242zM156 233l-41 -233h-70l123 700h313q76 0 121.5 -34.5t63.5 -86.5t8.5 -112.5t-44 -112.5t-93 -86.5t-138.5 -34.5h-243z" />
    <glyph glyph-name="Q" unicode="Q" horiz-adv-x="815" 
d="M480 711q78 0 134 -24t93 -65t54.5 -94.5t17.5 -113.5q0 -82 -32.5 -158.5t-93.5 -139.5l72 -85l-57 -50l-73 86q-48 -35 -109 -55t-132 -20q-90 0 -152 30t-97.5 80t-45.5 115.5t3 137.5q13 69 46.5 133.5t86.5 114t124.5 79t160.5 29.5zM475 645q-74 0 -137.5 -27.5
t-110 -74.5t-74 -109.5t-28.5 -132.5q-1 -48 11 -92t40 -77.5t72.5 -53.5t109.5 -20q81 0 145 30t109 78.5t69.5 111t26.5 128.5q1 49 -11.5 93t-40 76t-72.5 51t-109 19z" />
    <glyph glyph-name="R" unicode="R" horiz-adv-x="708" 
d="M619 0h-88l-182 258h-189l-45 -258h-70l123 700h314q51 0 88 -15t61.5 -40.5t36 -59t11.5 -71.5q0 -46 -15 -90t-46 -79t-79 -57t-113 -25zM227 634l-55 -310h240q48 0 85.5 14.5t62.5 39.5t38 58t13 70q0 55 -32 91.5t-108 36.5h-244z" />
    <glyph glyph-name="S" unicode="S" horiz-adv-x="662" 
d="M588 553q-13 22 -34 39.5t-47.5 30t-57.5 19.5t-62 8q-41 1 -79.5 -7t-69 -26t-48.5 -46t-18 -66q0 -26 14.5 -44.5t39 -31.5t57 -21.5t69.5 -15.5q52 -9 99 -22.5t81 -36t52 -57.5t13 -88q-5 -59 -33 -98t-70 -62t-94 -32t-106 -9q-43 0 -85 9t-79.5 28.5t-67.5 49.5
t-48 72l62 32q32 -66 93.5 -96.5t132.5 -30.5q42 0 81 8t69.5 24.5t50.5 42t24 59.5q4 37 -10.5 61.5t-41.5 40.5t-63.5 25.5t-76.5 16.5q-35 6 -75.5 16.5t-75 28.5t-58 46t-26.5 71q-4 58 20.5 100t66 69t95.5 39t110 11q39 -1 78 -9.5t72.5 -24t59.5 -38.5t41 -54z" />
    <glyph glyph-name="T" unicode="T" horiz-adv-x="593" 
d="M320 634h-247l12 66h564l-12 -66h-247l-112 -634h-70z" />
    <glyph glyph-name="U" unicode="U" horiz-adv-x="733" 
d="M716 700l-75 -427q-12 -71 -43 -123.5t-75 -87.5t-97.5 -52t-110.5 -17t-104.5 17t-79.5 52t-45 87.5t-1 123.5l75 427h70l-75 -427q-9 -50 -1 -90t29.5 -67.5t55.5 -42.5t79 -15q40 0 80.5 13t76 39.5t61 67t35.5 95.5l75 427h70z" />
    <glyph glyph-name="V" unicode="V" horiz-adv-x="721" 
d="M345 -2h-78l-174 702h77l146 -627l370 627h78z" />
    <glyph glyph-name="W" unicode="W" horiz-adv-x="1080" 
d="M746 -2h-71l-52 301l-38 265l-131 -264l-158 -302h-72l-124 702h79l97 -606l311 606h44l97 -606l312 606h78z" />
    <glyph glyph-name="X" unicode="X" horiz-adv-x="619" 
d="M579 700h86v-2l-305 -349l198 -347v-2h-79l-168 304l-267 -304h-84v2l320 362l-183 334v2h77l156 -294z" />
    <glyph glyph-name="Y" unicode="Y" horiz-adv-x="662" 
d="M332 344l291 356h82v-2l-346 -416l-50 -282h-70l50 282l-196 416v2h79z" />
    <glyph glyph-name="Z" unicode="Z" horiz-adv-x="594" 
d="M132 700h496l-5 -30l-541 -604h434l-11 -66h-535l6 36l534 600h-389z" />
    <glyph glyph-name="bracketleft" unicode="[" horiz-adv-x="316" 
d="M6 -170l156 883h194l-11 -63h-127l-134 -759h127l-11 -61h-194z" />
    <glyph glyph-name="backslash" unicode="\" horiz-adv-x="479" 
d="M176 761l214 -843h-70l-215 843h71z" />
    <glyph glyph-name="bracketright" unicode="]" horiz-adv-x="316" 
d="M-48 -169l11 63h126l134 757h-126l11 63h194l-156 -883h-194z" />
    <glyph glyph-name="asciicircum" unicode="^" horiz-adv-x="589" 
d="M65 373l275 327h57l161 -327l-3 -4h-68l-126 266l-223 -266h-72z" />
    <glyph glyph-name="underscore" unicode="_" horiz-adv-x="612" 
d="M15 -22h469l-11 -60h-469z" />
    <glyph glyph-name="grave" unicode="`" horiz-adv-x="234" 
d="M146 700h79l52 -124v-4h-60l-71 126v2z" />
    <glyph glyph-name="a" unicode="a" 
d="M512 396l17 98h63q-22 -125 -43.5 -247t-43.5 -247h-62l18 97q-21 -27 -47 -47.5t-54 -33.5t-57 -19.5t-57 -7.5q-54 1 -90.5 16t-64 43t-42.5 67.5t-15 88.5q0 67 25 122t67 94t97 60t114 21q28 0 55.5 -6.5t51 -19.5t41.5 -33t27 -46zM328 440q-44 0 -84.5 -16.5
t-72 -46.5t-50.5 -71.5t-19 -90.5q0 -74 36.5 -118t116.5 -44q64 0 112 28.5t77 71.5t38.5 93.5t-3.5 93.5t-50 71.5t-101 28.5z" />
    <glyph glyph-name="b" unicode="b" horiz-adv-x="636" 
d="M362 438q-44 0 -85 -16.5t-72.5 -46.5t-50.5 -71t-20 -90q0 -36 11 -65.5t31.5 -50.5t49.5 -32.5t64 -11.5q43 0 84 15t72.5 44.5t50.5 72t20 96.5q1 38 -10.5 67.5t-32.5 49t-49.5 29.5t-62.5 10zM217 702l-54 -307q38 55 96.5 81t116.5 25q46 1 84 -13t66 -40.5
t43.5 -65.5t15.5 -89q0 -71 -23.5 -127.5t-64 -95.5t-95 -59.5t-117.5 -21.5q-59 1 -104 24t-72 76l-20 -89h-63l124 702h67z" />
    <glyph glyph-name="c" unicode="c" horiz-adv-x="517" 
d="M447 62q-47 -42 -96.5 -57.5t-100.5 -15.5q-47 0 -86.5 14.5t-68 41.5t-45 67.5t-16.5 90.5q0 69 24.5 124t65.5 94t96 59.5t117 20.5q50 0 91.5 -17.5t73.5 -55.5l-50 -42q-23 27 -54.5 39.5t-67.5 12.5q-45 0 -86 -15.5t-72.5 -44.5t-50.5 -71t-19 -94q0 -79 42 -119.5
t117 -40.5q38 0 76.5 14t70.5 42z" />
    <glyph glyph-name="d" unicode="d" 
d="M326 439q-44 0 -84.5 -15t-71.5 -44.5t-49.5 -72t-18.5 -96.5q0 -76 41 -116.5t115 -40.5q45 0 86 16.5t71.5 46.5t49 71t18.5 90q0 72 -41.5 116.5t-115.5 44.5zM630 703l-124 -704h-65l18 95q-20 -27 -45 -46.5t-53.5 -32.5t-58.5 -19.5t-59 -6.5q-46 0 -84.5 14.5
t-66 41t-43 65.5t-15.5 89q0 72 24 128t65.5 95t95.5 59.5t114 19.5q58 1 107.5 -25t68.5 -81l54 308h67z" />
    <glyph glyph-name="e" unicode="e" horiz-adv-x="587" 
d="M533 217h-430q-3 -39 7 -69.5t31 -51.5t51.5 -32t68.5 -11q22 0 47 4.5t49 13t45.5 21t37.5 29.5l41 -41q-23 -23 -50.5 -40t-58 -28.5t-62 -17t-60.5 -5.5q-49 0 -88.5 15t-68 42.5t-44 66.5t-15.5 88q0 64 23 119t63.5 95t95.5 63t120 23q55 0 100 -17t73.5 -52
t36 -88.5t-12.5 -126.5zM111 274h370q13 81 -27.5 124.5t-126.5 43.5q-37 0 -71.5 -10.5t-63 -31.5t-49.5 -52.5t-32 -73.5z" />
    <glyph glyph-name="f" unicode="f" horiz-adv-x="368" 
d="M78 0l77 432h-98l10 58h98l6 40q17 98 63.5 138.5t126.5 40.5q56 0 98 -36l-36 -49q-18 12 -33.5 18.5t-37.5 6.5q-43 0 -72.5 -25.5t-41.5 -93.5l-6 -40h158l-10 -58h-158l-77 -432h-67z" />
    <glyph glyph-name="g" unicode="g" horiz-adv-x="636" 
d="M326 439q-44 0 -84.5 -16.5t-71.5 -46.5t-49.5 -71.5t-18.5 -91.5q0 -75 38.5 -117.5t119.5 -41.5q63 1 109.5 29.5t75 71.5t37.5 92.5t-4.5 92t-51 71t-100.5 28.5zM72 -73q-3 -65 37 -92t108 -27q34 0 70 7.5t66.5 27t54 54t32.5 87.5l20 109q-21 -27 -47 -46.5
t-54 -32t-57 -18.5t-57 -6q-46 0 -85 14.5t-67 42t-44 66.5t-16 89q0 68 25 123t67 94t97 60.5t114 21.5q28 0 56 -6.5t52 -19.5t42 -33t28 -46l17 98h62l-88 -510q-12 -66 -39.5 -111.5t-66.5 -74t-86.5 -41t-98.5 -12.5q-50 0 -90.5 12t-67.5 35t-40 57t-8 78h64z" />
    <glyph glyph-name="h" unicode="h" horiz-adv-x="593" 
d="M215 700l-51 -292q40 51 89 71.5t99 21.5q52 0 87.5 -16.5t56 -46t26.5 -70.5t-3 -91l-49 -277h-67l49 277q13 75 -13.5 117.5t-105.5 42.5q-36 0 -68.5 -13t-58 -36.5t-43 -54.5t-23.5 -67l-47 -266h-67l123 700h66z" />
    <glyph glyph-name="i" unicode="i" horiz-adv-x="222" 
d="M180 496l-87 -496h-67l87 496h67zM127 645q0 28 18.5 41.5t38.5 13.5q16 0 28 -9.5t12 -29.5q0 -28 -18.5 -41.5t-38.5 -13.5q-16 0 -28 9.5t-12 29.5z" />
    <glyph glyph-name="j" unicode="j" horiz-adv-x="223" 
d="M-134 -167q30 -15 63 -15q22 0 36.5 8.5t24 24t15 36t9.5 44.5l99 564h68l-100 -564q-7 -39 -17.5 -72t-28.5 -56.5t-45.5 -36.5t-68.5 -13q-23 0 -42.5 5.5t-38.5 16.5zM127 645q0 28 18.5 41.5t38.5 13.5q16 0 28 -9.5t12 -29.5q0 -28 -19 -41.5t-39 -13.5
q-16 0 -27.5 9.5t-11.5 29.5z" />
    <glyph glyph-name="k" unicode="k" horiz-adv-x="479" 
d="M215 700l-73 -418l251 212h87l-1 -4l-278 -232l222 -254l-1 -4h-83l-205 237l-42 -237h-66l123 700h66z" />
    <glyph glyph-name="l" unicode="l" horiz-adv-x="234" 
d="M222 700l-123 -700h-67l123 700h67z" />
    <glyph glyph-name="m" unicode="m" horiz-adv-x="928" 
d="M383 0l49 284q6 33 2 61t-18 48.5t-39 32.5t-62 12q-33 0 -62 -12t-51.5 -32.5t-38 -48.5t-21.5 -61l-49 -284h-67l86 492h63l-10 -77q32 47 77.5 66.5t90.5 19.5q27 0 52 -6t45 -19.5t34.5 -35.5t20.5 -53q36 61 89.5 87.5t110.5 26.5q47 0 83 -15.5t58 -43.5t30 -67.5
t-1 -88.5l-50 -286h-67l50 286q6 33 2.5 61t-17 48t-38.5 31.5t-62 11.5q-33 0 -62 -12t-52 -32.5t-38.5 -48.5t-21.5 -61l-49 -284h-67z" />
    <glyph glyph-name="n" unicode="n" horiz-adv-x="607" 
d="M416 0l48 276q14 80 -18 121t-115 41q-36 0 -68 -13t-57.5 -36t-43 -54t-23.5 -67l-46 -268h-67l86 493h64l-13 -83q40 48 89 69.5t100 21.5q48 0 86 -14t62 -42.5t33 -70.5t-1 -97l-48 -277h-68z" />
    <glyph glyph-name="o" unicode="o" horiz-adv-x="602" 
d="M338 501q48 0 87 -15.5t67 -44t43.5 -67.5t15.5 -87q0 -66 -24 -120.5t-65.5 -93.5t-96.5 -61t-117 -23q-48 1 -87 16t-67.5 43t-44 67t-15.5 87q0 65 24 120t65 94.5t96.5 62t118.5 22.5zM331 440q-47 0 -88.5 -17.5t-72.5 -48.5t-49.5 -73t-19.5 -90q-2 -72 39.5 -115
t113.5 -43q48 0 89 16.5t72 46.5t49 71t19 91q1 36 -9 65.5t-29.5 51t-48.5 33.5t-65 12z" />
    <glyph glyph-name="p" unicode="p" 
d="M289 54q45 0 85.5 15.5t72 44.5t50.5 71.5t20 96.5q1 74 -41.5 114t-111.5 40q-47 0 -87.5 -17.5t-71 -47.5t-48.5 -70.5t-19 -86.5q-1 -35 9.5 -64.5t30.5 -50.5t48 -33t63 -12zM-16 -236l129 730h65l-17 -105q38 53 96.5 83t123.5 29q45 0 82.5 -15t64.5 -42
t41.5 -65.5t14.5 -86.5q0 -69 -24 -125t-64.5 -95t-95.5 -60.5t-116 -22.5q-29 1 -56 7.5t-50 20t-41 34.5t-28 49l-59 -336h-66z" />
    <glyph glyph-name="q" unicode="q" horiz-adv-x="634" 
d="M253 55q45 0 86 17t72 47t49.5 71t19.5 88q1 34 -9.5 63.5t-30 50.5t-48 33t-64.5 12q-45 0 -86 -15t-72.5 -44t-50 -71t-19.5 -96q-2 -75 39 -115.5t114 -40.5zM397 -236l58 329q-40 -56 -97.5 -79.5t-114.5 -24.5q-47 1 -86 15.5t-66.5 41.5t-42.5 66t-15 88
q0 67 23.5 122t63.5 94.5t93 61.5t113 23q65 1 113 -29t67 -83l21 105h65l-129 -730h-66z" />
    <glyph glyph-name="r" unicode="r" horiz-adv-x="417" 
d="M176 494l-10 -81q16 25 37 42t43.5 27.5t46.5 14.5t46 4q34 0 58 -8t47 -27l-41 -55q-34 26 -80 26q-32 0 -62 -11.5t-54 -32.5t-41 -49.5t-23 -62.5l-50 -281h-67l87 494h63z" />
    <glyph glyph-name="s" unicode="s" horiz-adv-x="495" 
d="M45 126q29 -43 74 -59t91 -17q22 0 47.5 3.5t48 12.5t38.5 25.5t19 43.5q3 26 -9.5 42t-33 25t-44.5 13t-43 7q-32 6 -63 13.5t-55.5 20.5t-39.5 34t-15 53q1 44 21.5 74t52.5 49t72 27t80 8q56 0 99 -16t75 -51l-47 -44q-27 29 -63 39.5t-74 10.5q-29 0 -55.5 -5
t-47.5 -15.5t-33.5 -27.5t-13.5 -41q-1 -20 10 -33t29 -20.5t40.5 -11.5t43.5 -7q40 -6 74 -15.5t58 -25.5t37 -41.5t11 -61.5q-2 -41 -24 -69t-55.5 -45t-73.5 -25t-78 -8q-61 0 -109.5 21t-85.5 66z" />
    <glyph glyph-name="t" unicode="t" horiz-adv-x="386" 
d="M259 640l-26 -147h160l-10 -57h-160l-50 -283q-4 -23 -4 -41.5t7 -31.5t22 -20t40 -7q17 0 36 5.5t39 13.5l12 -59q-26 -11 -50.5 -17.5t-48.5 -6.5q-80 0 -107 43.5t-13 120.5l50 283h-101l10 57h101l25 140z" />
    <glyph glyph-name="u" unicode="u" horiz-adv-x="604" 
d="M171 494l-49 -277q-14 -77 17 -119t115 -42q36 0 68 13t57.5 36t43.5 53.5t24 66.5l47 269h67l-87 -494h-62l13 83q-41 -50 -85.5 -70t-106.5 -23q-53 2 -88 17t-58.5 44t-32 70.5t0.5 94.5l49 278h67z" />
    <glyph glyph-name="v" unicode="v" horiz-adv-x="553" 
d="M555 494l-295 -495h-74l-121 495h72l96 -423l248 423h74z" />
    <glyph glyph-name="w" unicode="w" horiz-adv-x="828" 
d="M473 494l64 -429l85 172l130 257h74l-261 -495h-80l-56 386l-93 -186l-106 -200h-76l-88 495h74l39 -251l22 -174l219 425h53z" />
    <glyph glyph-name="x" unicode="x" horiz-adv-x="486" 
d="M412 494h81v-3l-220 -242l146 -247v-2h-75l-114 207l-188 -207h-79v2l234 255l-134 234v3h75l104 -195z" />
    <glyph glyph-name="y" unicode="y" horiz-adv-x="605" 
d="M171 494l-49 -277q-14 -78 17.5 -120.5t113.5 -41.5q36 0 68 13t58 36t44 54t24 67l47 269h67l-88 -511q-11 -61 -36 -106t-60.5 -74t-80 -43.5t-94.5 -14.5q-103 0 -150 47.5t-38 132.5h62q-6 -67 30 -92t107 -25q33 0 64.5 10t57.5 31t45 54t27 80l18 100
q-39 -50 -89 -70t-102 -21q-48 0 -85.5 15t-61.5 44t-32.5 70.5t0.5 94.5l49 278h67z" />
    <glyph glyph-name="z" unicode="z" horiz-adv-x="462" 
d="M459 494l-4 -24l-364 -408h293l-11 -62h-395l4 25l364 409h-275l11 60h377z" />
    <glyph glyph-name="braceleft" unicode="{" horiz-adv-x="316" 
d="M206 -131q-50 -6 -81 -0.5t-47.5 25t-18.5 53.5t7 85l22 125q3 19 4 38.5t-4.5 35.5t-18.5 26t-38 10l9 52q25 0 41.5 10t27.5 25.5t17 35t9 38.5l24 136q16 88 60 125t135 19l-11 -51q-54 13 -81 -8.5t-38 -85.5l-24 -135q-4 -21 -9 -42t-14.5 -39t-26.5 -32.5
t-44 -21.5q25 -7 36.5 -21t15.5 -33t1.5 -40t-6.5 -42l-23 -129q-7 -38 -6 -60t10.5 -33t29.5 -12.5t52 3.5z" />
    <glyph glyph-name="bar" unicode="|" horiz-adv-x="246" 
d="M85 -110h-68l146 827h68z" />
    <glyph glyph-name="braceright" unicode="}" horiz-adv-x="316" 
d="M-31 -84q30 -5 50.5 -3.5t34 12t21.5 31t14 52.5l25 144q4 20 9 41.5t15 40t27 33t45 21.5q-26 7 -38 21t-15.5 32.5t-1 39.5t6.5 42l24 135q6 32 4.5 53t-11 32t-29.5 13.5t-51 -2.5l9 49q48 9 79.5 3.5t48 -23.5t19.5 -49.5t-4 -74.5l-24 -136q-3 -19 -4 -38.5
t4.5 -35.5t18.5 -26t38 -10l-9 -52q-25 0 -41.5 -10t-27.5 -25.5t-17.5 -35t-9.5 -38.5l-21 -118q-9 -51 -21.5 -87t-34.5 -57.5t-56 -28t-86 1.5z" />
    <glyph glyph-name="asciitilde" unicode="~" horiz-adv-x="628" 
d="M563 344q-35 -71 -87 -96t-116 4l-107 60q-40 23 -75.5 10.5t-61.5 -57.5l-45 20q38 70 95.5 91.5t110.5 -8.5l108 -59q18 -9 36 -11.5t34.5 2.5t31.5 20t28 42z" />
    <glyph glyph-name="exclamdown" unicode="&#xa1;" horiz-adv-x="234" 
d="M-7 -209l97 548h71q-13 -71 -25 -139t-23.5 -135t-23.5 -135t-25 -139h-71zM193 456q0 -29 -19.5 -43.5t-40.5 -14.5q-17 0 -29 10t-12 30q0 29 18.5 43.5t39.5 14.5q18 0 30.5 -10t12.5 -30z" />
    <glyph glyph-name="cent" unicode="&#xa2;" horiz-adv-x="534" 
d="M443 56q-37 -31 -79 -49t-84 -23l-12 -71h-65l12 72q-41 5 -74.5 21.5t-57.5 43.5t-37.5 63t-13.5 81q0 60 21.5 111t58 89t86 62.5t106.5 31.5l11 63h65l-11 -63q41 -5 76 -23t61 -49l-50 -43q-24 27 -57.5 41.5t-70.5 14.5q-44 0 -85.5 -15.5t-73.5 -45t-51 -71.5
t-19 -95q0 -38 12 -67.5t34 -49.5t51 -30t64 -10q37 0 75.5 15.5t71.5 43.5z" />
    <glyph glyph-name="sterling" unicode="&#xa3;" horiz-adv-x="642" 
d="M209 451q0 -23 1.5 -48.5t2.5 -45.5h250l-10 -58h-237q-1 -28 -6.5 -59t-19 -61.5t-36.5 -60t-57 -55.5h453l-11 -63h-532l11 65q41 32 67 61.5t40.5 58.5t20 57t5.5 57h-91l10 58h78q-2 19 -3.5 44t-1.5 48q0 66 22 114.5t59.5 80.5t88 47.5t107.5 15.5q46 0 85.5 -9.5
t67.5 -31.5t40.5 -58t4.5 -89h-59q6 38 -5.5 63t-33 40t-51 21t-60.5 6q-44 0 -81 -12.5t-63.5 -37.5t-41 -62t-14.5 -86z" />
    <glyph glyph-name="currency" unicode="&#xa4;" horiz-adv-x="602" 
d="M279 177q40 0 72 15t54.5 39t34.5 54.5t12 61.5q0 24 -7.5 46t-22.5 39.5t-37.5 27.5t-53.5 10q-40 0 -72 -15t-54.5 -39t-34.5 -54.5t-12 -61.5q0 -24 7.5 -46t22.5 -39.5t37.5 -27.5t53.5 -10zM88 93l-41 49l70 59q-11 20 -15.5 44.5t-4.5 47.5q0 42 17 80t46 71
l-49 59l58 50l48 -60q27 16 58 25t67 9q35 0 62.5 -9t48.5 -25l70 60l41 -50l-70 -58q10 -18 15 -42t5 -47q0 -41 -15.5 -80t-48.5 -75l50 -59l-58 -49l-50 60q-26 -16 -57 -24.5t-66 -8.5q-67 0 -111 33z" />
    <glyph glyph-name="yen" unicode="&#xa5;" horiz-adv-x="676" 
d="M500 162h-153l-28 -162h-70l28 162h-157l10 55h157l11 60h-157l9 55h124l-171 366v2h78l162 -356l290 356h82v-2l-305 -366h120l-9 -55h-153l-11 -60h153z" />
    <glyph glyph-name="brokenbar" unicode="&#xa6;" horiz-adv-x="244" 
d="M98 342l64 365h65l-64 -365h-65zM151 276l-64 -365h-65l64 365h65z" />
    <glyph glyph-name="section" unicode="&#xa7;" horiz-adv-x="560" 
d="M74 123q25 -42 70 -60.5t95 -18.5q23 0 49 4t49.5 13.5t41 25.5t22.5 40q5 22 -5 36.5t-29.5 23t-46.5 13.5t-56 8q-35 4 -68.5 12t-59.5 22.5t-42 35.5t-16 52q0 40 31.5 77.5t82.5 53.5q-34 12 -53 35.5t-19 58.5q0 43 22 73.5t57 49.5t77.5 27.5t83.5 8.5
q54 0 102.5 -15.5t79.5 -52.5l-50 -41q-31 30 -66 39.5t-78 9.5q-29 0 -57.5 -5.5t-51 -16.5t-36 -27.5t-13.5 -38.5q0 -20 12.5 -32.5t31.5 -20.5t41.5 -12.5t42.5 -7.5q35 -4 73 -11.5t67.5 -23t45 -41.5t5.5 -67q-10 -46 -42.5 -72t-74.5 -36q41 -13 64 -42t13 -75
q-9 -42 -35.5 -69.5t-61.5 -44t-74 -23t-72 -6.5t-65 6t-59 18t-48.5 30.5t-34.5 42.5zM442 351q3 19 -7 34.5t-28.5 26.5t-44 17t-53.5 7q-29 1 -58 -4.5t-52 -17t-37 -30t-14 -43.5q0 -17 10.5 -30.5t28.5 -22.5t41.5 -14t48.5 -6q28 -1 56 3.5t51 15t39 26.5t19 38z" />
    <glyph glyph-name="dieresis" unicode="&#xa8;" horiz-adv-x="455" 
d="M181 665q0 25 17 37.5t36 12.5q15 0 25.5 -9t10.5 -26q0 -26 -17.5 -38.5t-34.5 -12.5q-15 0 -26 9t-11 27zM402 665q0 25 17 37.5t36 12.5q15 0 25.5 -9t10.5 -26q0 -26 -17.5 -38.5t-34.5 -12.5q-15 0 -26 9t-11 27z" />
    <glyph glyph-name="copyright" unicode="&#xa9;" horiz-adv-x="837" 
d="M493 714q75 0 132 -23.5t95.5 -65t57.5 -96.5t19 -118q0 -84 -30.5 -161t-87 -136t-136.5 -94.5t-179 -35.5q-76 0 -133 24t-95.5 65.5t-57.5 96.5t-19 118q0 84 30.5 161t87.5 136t137 94t179 35zM408 156q-38 0 -68.5 12t-52.5 34t-34 52t-12 66q0 48 19 89.5t51.5 72
t75 47.5t89.5 17q39 0 72 -14.5t56 -43.5l-49 -42q-35 40 -89 40q-32 0 -61.5 -12t-52 -33t-36 -49t-13.5 -61q0 -51 32 -82.5t83 -31.5q55 0 104 41l35 -43q-34 -29 -71.5 -44t-77.5 -15zM124 296q0 -54 16 -100t47.5 -80.5t78.5 -54t109 -19.5q81 0 146.5 29.5t112 79
t72 115t25.5 138.5q0 54 -15.5 100t-47 80.5t-78 54t-107.5 19.5q-81 0 -147 -29.5t-113.5 -79t-73 -115.5t-25.5 -138z" />
    <glyph glyph-name="ordfeminine" unicode="&#xaa;" horiz-adv-x="497" 
d="M418 643l10 58h56l-57 -324h-55l10 59q-26 -32 -62.5 -48.5t-71.5 -16.5q-60 0 -99.5 36.5t-39.5 102.5q0 46 16.5 82.5t44.5 61.5t63.5 38.5t74.5 13.5q35 0 65.5 -16t44.5 -47zM302 651q-25 0 -48.5 -9.5t-41.5 -27t-29 -41t-11 -51.5q0 -42 25.5 -68t65.5 -26
q36 0 63.5 16.5t44 41.5t21.5 53.5t-3 53.5t-29 41.5t-58 16.5zM409 246h-330l11 60h330z" />
    <glyph glyph-name="guillemotleft" unicode="&#xab;" horiz-adv-x="436" 
d="M226 516h71q-1 -1 -1 -3l-174 -216q25 -56 50.5 -110t46.5 -111h-71l-100 221zM353 516h72q-1 -1 -1 -3l-174 -216l97 -221h-72l-99 221z" />
    <glyph glyph-name="logicalnot" unicode="&#xac;" horiz-adv-x="512" 
d="M411 169h-64l24 135h-295l11 63h359z" />
    <glyph glyph-name="uni00AD" unicode="&#xad;" horiz-adv-x="0" 
 />
    <glyph glyph-name="registered" unicode="&#xae;" horiz-adv-x="835" 
d="M491 714q76 0 133 -24t95 -65t57 -96t19 -118q0 -84 -30.5 -161t-87 -136t-136.5 -94.5t-179 -35.5q-75 0 -132 24t-95 65t-57 96.5t-19 118.5q0 83 30.5 160t87 136t136.5 94.5t178 35.5zM124 295q0 -54 15.5 -100t47 -80.5t77.5 -54t108 -19.5q81 0 147.5 29.5t113 79
t72 115.5t25.5 139q0 54 -16 100t-47 80t-78 53.5t-108 19.5q-82 0 -148 -29.5t-112.5 -79.5t-71.5 -115.5t-25 -137.5zM575 168l-2 -5h-67l-88 137h-79l-24 -137h-57l67 379h171q41 0 66 -16t36 -40.5t8 -54t-18 -56t-42 -46t-65 -24.5zM372 488l-24 -136h112q24 0 42 10
t28.5 25t14 33t-1.5 33t-19 25t-38 10h-114z" />
    <glyph glyph-name="macron" unicode="&#xaf;" horiz-adv-x="407" 
d="M159 702h325l-10 -57h-325z" />
    <glyph glyph-name="degree" unicode="&#xb0;" horiz-adv-x="322" 
d="M228 679q-33 0 -52 -21.5t-19 -49.5q0 -20 12 -34t38 -14q34 0 52 21.5t18 48.5q0 20 -11.5 34.5t-37.5 14.5zM236 723q47 0 68.5 -26.5t21.5 -60.5q0 -22 -8.5 -43.5t-24.5 -38.5t-39.5 -27.5t-53.5 -10.5q-49 0 -71 26t-22 60q0 22 9 44t26 39t40.5 27.5t53.5 10.5z
" />
    <glyph glyph-name="plusminus" unicode="&#xb1;" horiz-adv-x="526" 
d="M91 401h160l28 160h60l-28 -160h160l-10 -60h-160l-29 -164h-60l29 164h-160zM45 103h370l-11 -60h-370z" />
    <glyph glyph-name="uni00B2" unicode="&#xb2;" horiz-adv-x="358" 
d="M114 676q6 31 21 52t36.5 33.5t47 17.5t51.5 5q23 0 44 -4.5t37 -15t25.5 -27.5t9.5 -43q0 -41 -14.5 -66t-37.5 -39t-51 -19.5t-55 -8.5q-17 -2 -33 -3.5t-29 -7t-22 -16.5t-13 -31l-5 -27h219l-10 -56h-273l15 84q6 32 22 52.5t37.5 32.5t46.5 17t49 6q20 1 37.5 4.5
t31 12t21 22.5t7.5 35q0 28 -19 39t-49 11q-15 0 -30.5 -2.5t-28.5 -9.5t-22.5 -18.5t-12.5 -29.5h-53z" />
    <glyph glyph-name="uni00B3" unicode="&#xb3;" horiz-adv-x="360" 
d="M231 582h-56l8 49h52q14 0 28.5 2.5t27 8.5t21.5 16t12 25q1 9 -2 18t-11 17t-22 13t-35 5q-12 0 -26.5 -2.5t-28 -9t-24 -17.5t-14.5 -29h-50q5 29 20 49t36 33t45.5 18.5t49.5 5.5q24 0 45.5 -5t38 -16t26.5 -27.5t10 -38.5q0 -32 -20.5 -57.5t-49.5 -33.5
q26 -8 38 -28t12 -40q0 -35 -15 -58.5t-39 -37.5t-53.5 -20t-58.5 -6q-26 0 -49.5 5.5t-40.5 18t-25.5 33.5t-3.5 52h56q-2 -19 5 -30t19 -17t25.5 -7.5t24.5 -1.5q13 0 30 2.5t31.5 9.5t24.5 19.5t10 33.5q0 16 -16 32t-56 16z" />
    <glyph glyph-name="acute" unicode="&#xb4;" horiz-adv-x="224" 
d="M306 698l-116 -126h-61l1 4l97 124h80z" />
    <glyph glyph-name="mu" unicode="&#xb5;" horiz-adv-x="599" 
d="M431 0l8 76q-16 -23 -37.5 -39t-46 -26.5t-50 -15t-49.5 -4.5q-48 0 -86.5 22t-53.5 68l-55 -305h-67l126 717h68l-49 -280q-7 -39 1.5 -68.5t27.5 -50t46 -31.5t57 -11t61 10t57.5 31.5t46 55t27.5 78.5l47 266h67l-87 -493h-59z" />
    <glyph glyph-name="mu" unicode="&#x3bc;" horiz-adv-x="599" 
d="M431 0l8 76q-16 -23 -37.5 -39t-46 -26.5t-50 -15t-49.5 -4.5q-48 0 -86.5 22t-53.5 68l-55 -305h-67l126 717h68l-49 -280q-7 -39 1.5 -68.5t27.5 -50t46 -31.5t57 -11t61 10t57.5 31.5t46 55t27.5 78.5l47 266h67l-87 -493h-59z" />
    <glyph glyph-name="paragraph" unicode="&#xb6;" horiz-adv-x="799" 
d="M253 -215h-70l71 405q-61 1 -102.5 23.5t-65.5 58t-31 80.5t2 92q9 48 33.5 94t62.5 81.5t89 57.5t114 22h477l-11 -64h-103l-150 -850h-68l150 850h-248z" />
    <glyph glyph-name="periodcentered" unicode="&#xb7;" horiz-adv-x="238" 
d="M68 278q0 28 18.5 42t39.5 14q17 0 28.5 -9.5t11.5 -29.5q0 -29 -19.5 -43t-39.5 -14q-16 0 -27.5 10t-11.5 30z" />
    <glyph glyph-name="cedilla" unicode="&#xb8;" horiz-adv-x="296" 
d="M37 -126q10 -20 27 -28.5t39 -9.5q20 0 38.5 8.5t27.5 27.5q6 14 3.5 26.5t-13 20t-29 9.5t-44.5 -5l-9 10l39 89h49l-25 -54q31 1 51 -8.5t29.5 -24.5t9 -34.5t-8.5 -38.5q-17 -40 -53 -58.5t-72 -18.5q-33 0 -60.5 14t-38.5 43z" />
    <glyph glyph-name="uni00B9" unicode="&#xb9;" horiz-adv-x="252" 
d="M66 469h68l43 243l-57 -13l9 51l115 27l-54 -308h69l-9 -50h-193z" />
    <glyph glyph-name="ordmasculine" unicode="&#xba;" horiz-adv-x="474" 
d="M377 252h-298l10 58h298zM251 371q-61 0 -101 37t-40 103q0 46 16.5 82t44 61t64 38.5t75.5 13.5q62 0 102.5 -35.5t40.5 -101.5q0 -46 -17 -83t-45 -62.5t-64.5 -39t-75.5 -13.5zM261 428q26 0 49.5 10t41 27t28 41t10.5 53q0 42 -24.5 67t-65.5 25q-25 0 -48 -9.5
t-40.5 -27t-28 -41.5t-10.5 -52q0 -42 24 -67.5t64 -25.5z" />
    <glyph glyph-name="guillemotright" unicode="&#xbb;" horiz-adv-x="434" 
d="M386 298l-178 -220h-71l175 220l-98 216q0 2 1 4h71zM262 298l-177 -220h-72l175 220l-98 216q0 2 1 4h72z" />
    <glyph glyph-name="onequarter" unicode="&#xbc;" horiz-adv-x="741" 
d="M666 359l-41 -231h50l-9 -53h-50l-13 -74h-55l13 74h-192l4 47l228 237h65zM599 294l-160 -166h131zM86 -2l499 706h67l-500 -706h-66zM66 394h63l43 245l-56 -12l9 49l114 26l-54 -308h66l-9 -50h-185z" />
    <glyph glyph-name="onehalf" unicode="&#xbd;" horiz-adv-x="781" 
d="M83 -2l499 706h67l-500 -706h-66zM64 395h62l43 243l-57 -13l9 51l117 27l-54 -308h65l-9 -50h-185zM457 256q6 31 21.5 52.5t37 34t47 18t51.5 5.5q23 0 44.5 -4.5t38.5 -15.5t27 -29t10 -44q0 -39 -15 -64t-38 -40t-51 -21.5t-55 -9.5q-17 -2 -32.5 -3.5t-28 -7
t-21.5 -15.5t-12 -29l-5 -27h217l-10 -56h-273l15 84q6 32 22 52t37.5 31.5t46.5 16.5t49 6q40 1 68 17.5t28 57.5q0 28 -20.5 39.5t-51.5 11.5q-30 0 -57 -12t-34 -48h-56z" />
    <glyph glyph-name="threequarters" unicode="&#xbe;" horiz-adv-x="788" 
d="M719 358l-40 -231h44l-10 -53h-44l-13 -74h-55l13 74h-192l5 47l223 237h69zM653 293l-160 -166h131zM220 515h-54l8 48h50q15 0 31 2.5t29 9t21 17t8 26.5q0 17 -16.5 32t-54.5 15q-12 0 -26 -2.5t-26.5 -8.5t-22.5 -17t-14 -29h-51q5 28 20 48t36 32.5t45.5 18
t48.5 5.5q23 0 44 -5t37.5 -15.5t26 -26.5t9.5 -38q0 -33 -20 -57t-49 -32q25 -7 37 -27t12 -40q0 -33 -14.5 -56t-38 -37t-52.5 -20t-57 -6q-25 0 -48 5.5t-39.5 18t-25 33t-3.5 50.5h57q-3 -18 4 -29t18 -17t24 -7.5t24 -1.5q14 0 30.5 2.5t30.5 9t23.5 19t9.5 32.5
q0 15 -16 31.5t-56 16.5zM141 -3l511 707h65l-512 -707h-64z" />
    <glyph glyph-name="questiondown" unicode="&#xbf;" horiz-adv-x="595" 
d="M408 471q0 -29 -19.5 -44t-40.5 -15q-17 0 -28.5 10.5t-11.5 30.5q0 29 19 43.5t39 14.5q18 0 30 -10t12 -30zM512 0q-7 -57 -34.5 -97t-68 -65t-89 -36.5t-97.5 -11.5q-45 0 -88 9t-77 30t-55 54.5t-21 82.5t15.5 86t41 64.5t58.5 46.5t67 32q29 11 56 22t48 27.5t35 42
t18 65.5h68q-5 -51 -22.5 -85t-44.5 -58t-61.5 -40.5t-72.5 -32.5q-27 -11 -51 -25t-43 -33t-30 -44.5t-11 -59.5q0 -36 16.5 -59.5t43 -37t58 -18.5t61.5 -5q32 0 67 7t65 23.5t52 45t27 70.5h69z" />
    <glyph glyph-name="Agrave" unicode="&#xc0;" horiz-adv-x="744" 
d="M558 162h-408l-101 -162h-75l437 700h70l191 -700h-71zM189 226h352l-104 399zM350 901h79l52 -124v-4h-60l-71 126v2z" />
    <glyph glyph-name="Aacute" unicode="&#xc1;" horiz-adv-x="744" 
d="M558 162h-408l-101 -162h-75l437 700h70l191 -700h-71zM189 226h352l-104 399zM603 899l-116 -126h-61l1 4l97 124h80z" />
    <glyph glyph-name="Acircumflex" unicode="&#xc2;" horiz-adv-x="744" 
d="M558 162h-408l-101 -162h-75l437 700h70l191 -700h-71zM189 226h352l-104 399zM497 906l119 -133l-1 -7h-69l-80 88l-112 -88h-73l1 7l168 133h47z" />
    <glyph glyph-name="Atilde" unicode="&#xc3;" horiz-adv-x="744" 
d="M558 162h-408l-101 -162h-75l437 700h70l191 -700h-71zM189 226h352l-104 399zM322 807q15 39 45.5 57.5t64.5 11.5q15 -3 32 -13t33.5 -16t32 -2t28.5 30l42 -18q-16 -44 -47 -60t-61 -9q-16 5 -33.5 15t-34.5 15t-32.5 0.5t-27.5 -29.5z" />
    <glyph glyph-name="Adieresis" unicode="&#xc4;" horiz-adv-x="744" 
d="M558 162h-408l-101 -162h-75l437 700h70l191 -700h-71zM189 226h352l-104 399zM300 810q0 25 17 37.5t36 12.5q15 0 25.5 -9t10.5 -26q0 -26 -17.5 -38.5t-34.5 -12.5q-15 0 -26 9t-11 27zM521 810q0 25 17 37.5t36 12.5q15 0 25.5 -9t10.5 -26q0 -26 -17.5 -38.5
t-34.5 -12.5q-15 0 -26 9t-11 27z" />
    <glyph glyph-name="Aring" unicode="&#xc5;" horiz-adv-x="754" 
d="M414 694q-31 8 -45.5 28.5t-14.5 49.5q0 30 11.5 52.5t30.5 38t42.5 23t47.5 7.5q19 0 36.5 -5.5t31 -16.5t22 -27.5t8.5 -37.5q0 -44 -26.5 -73t-69.5 -40zM477 847q-33 0 -51 -21t-18 -45q0 -19 11.5 -34t37.5 -15q30 0 48 17.5t23 38.5q5 22 -7.5 40.5t-43.5 18.5z
M563 162h-408l-101 -162h-75l437 700h70l191 -700h-71zM194 226h352l-104 399z" />
    <glyph glyph-name="AE" unicode="&#xc6;" horiz-adv-x="917" 
d="M812 0h-415l39 221h-243l-171 -221h-84l553 700h433l-11 -65h-336l-44 -250h320l-12 -65h-320l-44 -253h347zM448 287l29 167l33 174h-3l-261 -341h202z" />
    <glyph glyph-name="Ccedilla" unicode="&#xc7;" horiz-adv-x="708" 
d="M371 -4l-25 -55q33 1 53 -8.5t30 -24.5t9.5 -34.5t-9.5 -38.5q-17 -40 -53.5 -58.5t-74.5 -18.5q-35 1 -63.5 14.5t-39.5 42.5l41 32q11 -20 28.5 -28.5t40.5 -9.5q21 0 40.5 8.5t27.5 27.5q7 14 4.5 26.5t-14 20t-30.5 9.5t-46 -5l-10 10l40 90h51zM637 95
q-63 -54 -132.5 -80t-140.5 -26q-79 0 -137 23t-96 63.5t-56.5 94t-18.5 115.5q0 81 29.5 159t84.5 137t135.5 95t184.5 36q34 0 67.5 -6.5t64 -19.5t56 -33t43.5 -47l-50 -42q-35 42 -84.5 63t-106.5 21q-83 0 -148.5 -30.5t-110.5 -80t-69.5 -113.5t-24.5 -130
q0 -51 15 -95t46 -76t77.5 -50.5t109.5 -18.5q57 0 116 22t109 64z" />
    <glyph glyph-name="Egrave" unicode="&#xc8;" horiz-adv-x="654" 
d="M547 0h-502q31 176 61.5 350t61.5 350h493l-11 -66h-423l-44 -251h404l-12 -65h-404l-44 -252h432zM363 904h79l52 -124v-4h-60l-71 126v2z" />
    <glyph glyph-name="Eacute" unicode="&#xc9;" horiz-adv-x="654" 
d="M547 0h-502q31 176 61.5 350t61.5 350h493l-11 -66h-423l-44 -251h404l-12 -65h-404l-44 -252h432zM573 899l-116 -126h-61l1 4l97 124h80z" />
    <glyph glyph-name="Ecircumflex" unicode="&#xca;" horiz-adv-x="654" 
d="M547 0h-502q31 176 61.5 350t61.5 350h493l-11 -66h-423l-44 -251h404l-12 -65h-404l-44 -252h432zM482.812 914.945l117.22 -131.101l-0.984375 -6.89941h-67.9688l-78.8037 86.7422l-110.325 -86.7422h-71.9082l0.985352 6.89941l165.487 131.101h46.2979z" />
    <glyph glyph-name="Edieresis" unicode="&#xcb;" horiz-adv-x="654" 
d="M547 0h-502q31 176 61.5 350t61.5 350h493l-11 -66h-423l-44 -251h404l-12 -65h-404l-44 -252h432zM300 817q0 25 17 37.5t36 12.5q15 0 25.5 -9t10.5 -26q0 -26 -17.5 -38.5t-34.5 -12.5q-15 0 -26 9t-11 27zM521 817q0 25 17 37.5t36 12.5q15 0 25.5 -9t10.5 -26
q0 -26 -17.5 -38.5t-34.5 -12.5q-15 0 -26 9t-11 27z" />
    <glyph glyph-name="Igrave" unicode="&#xcc;" horiz-adv-x="263" 
d="M45 0l123 700h70l-123 -700h-70zM123.965 899.531h71.4062l47.001 -123.031v-3.96875h-54.2324l-64.1748 125.016v1.98438z" />
    <glyph glyph-name="Iacute" unicode="&#xcd;" horiz-adv-x="263" 
d="M45 0l123 700h70l-123 -700h-70zM341.418 898l-104.028 -126h-54.7041l0.897461 4l86.9883 124h71.7432z" />
    <glyph glyph-name="Icircumflex" unicode="&#xce;" horiz-adv-x="263" 
d="M45 0l123 700h70l-123 -700h-70zM259.652 900.93l106.877 -132.042l-0.897461 -6.9502h-61.9717l-71.8506 87.3672l-100.591 -87.3672h-65.5635l0.898438 6.9502l150.886 132.042h42.2129z" />
    <glyph glyph-name="Idieresis" unicode="&#xcf;" horiz-adv-x="263" 
d="M84 809q0 25 17 37.5t36 12.5q15 0 25.5 -9t10.5 -26q0 -26 -17.5 -38.5t-34.5 -12.5q-15 0 -26 9t-11 27zM264 809q0 25 17 37.5t36 12.5q15 0 25.5 -9t10.5 -26q0 -26 -17.5 -38.5t-34.5 -12.5q-15 0 -26 9t-11 27zM45 0l123 700h70l-123 -700h-70z" />
    <glyph glyph-name="Eth" unicode="&#xd0;" horiz-adv-x="755" 
d="M33 317l10 56h316l-10 -56h-316zM420 700q78 0 134 -24t92 -64t53.5 -92t17.5 -108q0 -71 -25.5 -144t-77 -132.5t-130.5 -97.5t-187 -38h-247l123 700h247zM131 65h177q82 0 144.5 30.5t105 79t64.5 107.5t22 116q0 45 -11 87.5t-37.5 75.5t-72 53t-114.5 20h-177z" />
    <glyph glyph-name="Ntilde" unicode="&#xd1;" horiz-adv-x="756" 
d="M564 132l38 232l59 336h70l-123 -700h-42l-352 574l-36 -218l-63 -356h-70l123 700h44zM323 797q15 39 45.5 57.5t64.5 11.5q15 -3 32 -13t33.5 -16t32 -2t28.5 30l42 -18q-16 -44 -47 -60t-61 -9q-16 5 -33.5 15t-34.5 15t-32.5 0.5t-27.5 -29.5z" />
    <glyph glyph-name="Ograve" unicode="&#xd2;" horiz-adv-x="812" 
d="M482 712q89 0 150 -30.5t96 -81.5t45.5 -116.5t-2.5 -135.5q-12 -69 -45.5 -134t-86.5 -115.5t-124.5 -81t-160.5 -30.5q-77 0 -133.5 25t-93 67t-54 96.5t-17.5 113.5q0 82 30.5 159t86 135.5t134 93.5t175.5 35zM125 299q-1 -49 12 -93.5t41 -78.5t72.5 -54t106.5 -20
q72 0 130 25t101.5 66t72 94.5t39.5 109.5q12 59 5.5 113t-33.5 95t-75 65.5t-120 24.5q-80 0 -144.5 -28.5t-110 -76t-70.5 -110.5t-27 -132zM393 906h79l52 -124v-4h-60l-71 126v2z" />
    <glyph glyph-name="Oacute" unicode="&#xd3;" horiz-adv-x="812" 
d="M482 712q89 0 150 -30.5t96 -81.5t45.5 -116.5t-2.5 -135.5q-12 -69 -45.5 -134t-86.5 -115.5t-124.5 -81t-160.5 -30.5q-77 0 -133.5 25t-93 67t-54 96.5t-17.5 113.5q0 82 30.5 159t86 135.5t134 93.5t175.5 35zM125 299q-1 -49 12 -93.5t41 -78.5t72.5 -54t106.5 -20
q72 0 130 25t101.5 66t72 94.5t39.5 109.5q12 59 5.5 113t-33.5 95t-75 65.5t-120 24.5q-80 0 -144.5 -28.5t-110 -76t-70.5 -110.5t-27 -132zM645 904l-116 -126h-61l1 4l97 124h80z" />
    <glyph glyph-name="Ocircumflex" unicode="&#xd4;" horiz-adv-x="812" 
d="M482 712q89 0 150 -30.5t96 -81.5t45.5 -116.5t-2.5 -135.5q-12 -69 -45.5 -134t-86.5 -115.5t-124.5 -81t-160.5 -30.5q-77 0 -133.5 25t-93 67t-54 96.5t-17.5 113.5q0 82 30.5 159t86 135.5t134 93.5t175.5 35zM125 299q-1 -49 12 -93.5t41 -78.5t72.5 -54t106.5 -20
q72 0 130 25t101.5 66t72 94.5t39.5 109.5q12 59 5.5 113t-33.5 95t-75 65.5t-120 24.5q-80 0 -144.5 -28.5t-110 -76t-70.5 -110.5t-27 -132zM541 921l119 -133l-1 -7h-69l-80 88l-112 -88h-73l1 7l168 133h47z" />
    <glyph glyph-name="Otilde" unicode="&#xd5;" horiz-adv-x="812" 
d="M482 712q89 0 150 -30.5t96 -81.5t45.5 -116.5t-2.5 -135.5q-12 -69 -45.5 -134t-86.5 -115.5t-124.5 -81t-160.5 -30.5q-77 0 -133.5 25t-93 67t-54 96.5t-17.5 113.5q0 82 30.5 159t86 135.5t134 93.5t175.5 35zM125 299q-1 -49 12 -93.5t41 -78.5t72.5 -54t106.5 -20
q72 0 130 25t101.5 66t72 94.5t39.5 109.5q12 59 5.5 113t-33.5 95t-75 65.5t-120 24.5q-80 0 -144.5 -28.5t-110 -76t-70.5 -110.5t-27 -132zM359 820q15 39 45.5 57.5t64.5 11.5q15 -3 32 -13t33.5 -16t32 -2t28.5 30l42 -18q-16 -44 -47 -60t-61 -9q-16 5 -33.5 15
t-34.5 15t-32.5 0.5t-27.5 -29.5z" />
    <glyph glyph-name="Odieresis" unicode="&#xd6;" horiz-adv-x="812" 
d="M482 712q89 0 150 -30.5t96 -81.5t45.5 -116.5t-2.5 -135.5q-12 -69 -45.5 -134t-86.5 -115.5t-124.5 -81t-160.5 -30.5q-77 0 -133.5 25t-93 67t-54 96.5t-17.5 113.5q0 82 30.5 159t86 135.5t134 93.5t175.5 35zM125 299q-1 -49 12 -93.5t41 -78.5t72.5 -54t106.5 -20
q72 0 130 25t101.5 66t72 94.5t39.5 109.5q12 59 5.5 113t-33.5 95t-75 65.5t-120 24.5q-80 0 -144.5 -28.5t-110 -76t-70.5 -110.5t-27 -132zM341 821q0 25 17 37.5t36 12.5q15 0 25.5 -9t10.5 -26q0 -26 -17.5 -38.5t-34.5 -12.5q-15 0 -26 9t-11 27zM562 821
q0 25 17 37.5t36 12.5q15 0 25.5 -9t10.5 -26q0 -26 -17.5 -38.5t-34.5 -12.5q-15 0 -26 9t-11 27z" />
    <glyph glyph-name="multiply" unicode="&#xd7;" horiz-adv-x="455" 
d="M237 364l138 118l37 -46l-139 -118l98 -117l-48 -39l-97 117l-142 -122l-36 46l143 122l-98 115l49 41z" />
    <glyph glyph-name="Oslash" unicode="&#xd8;" horiz-adv-x="816" 
d="M141 -77h-72l631 839h72zM482 712q89 0 150 -30.5t96 -81.5t45.5 -116.5t-2.5 -135.5q-12 -69 -45.5 -134t-86.5 -115.5t-124.5 -81t-160.5 -30.5q-77 0 -133.5 25t-93 67t-54 96.5t-17.5 113.5q0 82 30.5 159t86 135.5t134 93.5t175.5 35zM125 299q-1 -49 12 -93.5
t41 -78.5t72.5 -54t106.5 -20q72 0 130 25t101.5 66t72 94.5t39.5 109.5q12 59 5.5 113t-33.5 95t-75 65.5t-120 24.5q-80 0 -144.5 -28.5t-110 -76t-70.5 -110.5t-27 -132z" />
    <glyph glyph-name="Ugrave" unicode="&#xd9;" horiz-adv-x="733" 
d="M716 700l-75 -427q-12 -71 -43 -123.5t-75 -87.5t-97.5 -52t-110.5 -17t-104.5 17t-79.5 52t-45 87.5t-1 123.5l75 427h70l-75 -427q-9 -50 -1 -90t29.5 -67.5t55.5 -42.5t79 -15q40 0 80.5 13t76 39.5t61 67t35.5 95.5l75 427h70zM345 899h79l52 -124v-4h-60l-71 126v2z
" />
    <glyph glyph-name="Uacute" unicode="&#xda;" horiz-adv-x="733" 
d="M716 700l-75 -427q-12 -71 -43 -123.5t-75 -87.5t-97.5 -52t-110.5 -17t-104.5 17t-79.5 52t-45 87.5t-1 123.5l75 427h70l-75 -427q-9 -50 -1 -90t29.5 -67.5t55.5 -42.5t79 -15q40 0 80.5 13t76 39.5t61 67t35.5 95.5l75 427h70zM573 896l-116 -126h-61l1 4l97 124h80z
" />
    <glyph glyph-name="Ucircumflex" unicode="&#xdb;" horiz-adv-x="733" 
d="M716 700l-75 -427q-12 -71 -43 -123.5t-75 -87.5t-97.5 -52t-110.5 -17t-104.5 17t-79.5 52t-45 87.5t-1 123.5l75 427h70l-75 -427q-9 -50 -1 -90t29.5 -67.5t55.5 -42.5t79 -15q40 0 80.5 13t76 39.5t61 67t35.5 95.5l75 427h70zM502 912l119 -133l-1 -7h-69l-80 88
l-112 -88h-73l1 7l168 133h47z" />
    <glyph glyph-name="Udieresis" unicode="&#xdc;" horiz-adv-x="733" 
d="M716 700l-75 -427q-12 -71 -43 -123.5t-75 -87.5t-97.5 -52t-110.5 -17t-104.5 17t-79.5 52t-45 87.5t-1 123.5l75 427h70l-75 -427q-9 -50 -1 -90t29.5 -67.5t55.5 -42.5t79 -15q40 0 80.5 13t76 39.5t61 67t35.5 95.5l75 427h70zM296 812q0 25 17 37.5t36 12.5
q15 0 25.5 -9t10.5 -26q0 -26 -17.5 -38.5t-34.5 -12.5q-15 0 -26 9t-11 27zM517 812q0 25 17 37.5t36 12.5q15 0 25.5 -9t10.5 -26q0 -26 -17.5 -38.5t-34.5 -12.5q-15 0 -26 9t-11 27z" />
    <glyph glyph-name="Yacute" unicode="&#xdd;" horiz-adv-x="662" 
d="M332 344l291 356h82v-2l-346 -416l-50 -282h-70l50 282l-196 416v2h79zM542 898l-116 -126h-61l1 4l97 124h80z" />
    <glyph glyph-name="Thorn" unicode="&#xde;" horiz-adv-x="681" 
d="M168 700h71l-21 -121h242q74 0 120 -34t64.5 -85.5t10 -111t-42.5 -111t-92.5 -85.5t-140.5 -34h-241l-21 -118h-72zM149 184h241q54 0 94.5 24.5t65 60.5t32 79t-4 79t-43.5 60.5t-86 24.5h-241z" />
    <glyph glyph-name="germandbls" unicode="&#xdf;" horiz-adv-x="606" 
d="M165 9q2 16 5 31.5t6 31.5q54 -25 108 -26.5t97 18t69.5 59t26.5 96.5q0 39 -15 64.5t-39.5 41t-56.5 21.5t-65 6h-75l11 60h71q24 0 52.5 5t54.5 17.5t45.5 35t25.5 57.5q7 37 -2.5 61t-28 38t-44 19t-50.5 5q-77 0 -121.5 -39.5t-55.5 -104.5l-38 -215
q-12 -71 -25.5 -146.5t-25.5 -144.5h-69l89 506q10 57 35.5 96.5t60.5 63.5t76.5 34.5t83.5 10.5q39 0 73 -9t59 -27.5t39.5 -47t14.5 -68.5q0 -32 -9.5 -60.5t-27.5 -51t-43.5 -38t-56.5 -22.5q34 -8 57.5 -23t38.5 -36t22 -46t7 -53q0 -86 -37 -140t-93.5 -79.5
t-123 -24.5t-126.5 24z" />
    <glyph glyph-name="agrave" unicode="&#xe0;" 
d="M512 396l17 98h63q-22 -125 -43.5 -247t-43.5 -247h-62l18 97q-21 -27 -47 -47.5t-54 -33.5t-57 -19.5t-57 -7.5q-54 1 -90.5 16t-64 43t-42.5 67.5t-15 88.5q0 67 25 122t67 94t97 60t114 21q28 0 55.5 -6.5t51 -19.5t41.5 -33t27 -46zM328 440q-44 0 -84.5 -16.5
t-72 -46.5t-50.5 -71.5t-19 -90.5q0 -74 36.5 -118t116.5 -44q64 0 112 28.5t77 71.5t38.5 93.5t-3.5 93.5t-50 71.5t-101 28.5zM279 707h79l52 -124v-4h-60l-71 126v2z" />
    <glyph glyph-name="aacute" unicode="&#xe1;" 
d="M512 396l17 98h63q-22 -125 -43.5 -247t-43.5 -247h-62l18 97q-21 -27 -47 -47.5t-54 -33.5t-57 -19.5t-57 -7.5q-54 1 -90.5 16t-64 43t-42.5 67.5t-15 88.5q0 67 25 122t67 94t97 60t114 21q28 0 55.5 -6.5t51 -19.5t41.5 -33t27 -46zM328 440q-44 0 -84.5 -16.5
t-72 -46.5t-50.5 -71.5t-19 -90.5q0 -74 36.5 -118t116.5 -44q64 0 112 28.5t77 71.5t38.5 93.5t-3.5 93.5t-50 71.5t-101 28.5zM498 703l-116 -126h-61l1 4l97 124h80z" />
    <glyph glyph-name="acircumflex" unicode="&#xe2;" 
d="M512 396l17 98h63q-22 -125 -43.5 -247t-43.5 -247h-62l18 97q-21 -27 -47 -47.5t-54 -33.5t-57 -19.5t-57 -7.5q-54 1 -90.5 16t-64 43t-42.5 67.5t-15 88.5q0 67 25 122t67 94t97 60t114 21q28 0 55.5 -6.5t51 -19.5t41.5 -33t27 -46zM328 440q-44 0 -84.5 -16.5
t-72 -46.5t-50.5 -71.5t-19 -90.5q0 -74 36.5 -118t116.5 -44q64 0 112 28.5t77 71.5t38.5 93.5t-3.5 93.5t-50 71.5t-101 28.5zM419.735 705.918l116.509 -130.15l-0.978516 -6.85059h-67.5557l-78.3252 86.1152l-109.655 -86.1152h-71.4717l0.978516 6.85059
l164.483 130.15h46.0156z" />
    <glyph glyph-name="atilde" unicode="&#xe3;" 
d="M512 396l17 98h63q-22 -125 -43.5 -247t-43.5 -247h-62l18 97q-21 -27 -47 -47.5t-54 -33.5t-57 -19.5t-57 -7.5q-54 1 -90.5 16t-64 43t-42.5 67.5t-15 88.5q0 67 25 122t67 94t97 60t114 21q28 0 55.5 -6.5t51 -19.5t41.5 -33t27 -46zM328 440q-44 0 -84.5 -16.5
t-72 -46.5t-50.5 -71.5t-19 -90.5q0 -74 36.5 -118t116.5 -44q64 0 112 28.5t77 71.5t38.5 93.5t-3.5 93.5t-50 71.5t-101 28.5zM246 627q15 39 45.5 57.5t64.5 11.5q15 -3 32 -13t33.5 -16t32 -2t28.5 30l42 -18q-16 -44 -47 -60t-61 -9q-16 5 -33.5 15t-34.5 15t-32.5 0.5
t-27.5 -29.5z" />
    <glyph glyph-name="adieresis" unicode="&#xe4;" 
d="M512 396l17 98h63q-22 -125 -43.5 -247t-43.5 -247h-62l18 97q-21 -27 -47 -47.5t-54 -33.5t-57 -19.5t-57 -7.5q-54 1 -90.5 16t-64 43t-42.5 67.5t-15 88.5q0 67 25 122t67 94t97 60t114 21q28 0 55.5 -6.5t51 -19.5t41.5 -33t27 -46zM328 440q-44 0 -84.5 -16.5
t-72 -46.5t-50.5 -71.5t-19 -90.5q0 -74 36.5 -118t116.5 -44q64 0 112 28.5t77 71.5t38.5 93.5t-3.5 93.5t-50 71.5t-101 28.5zM236 648q0 25 17 37.5t36 12.5q15 0 25.5 -9t10.5 -26q0 -26 -17.5 -38.5t-34.5 -12.5q-15 0 -26 9t-11 27zM457 648q0 25 17 37.5t36 12.5
q15 0 25.5 -9t10.5 -26q0 -26 -17.5 -38.5t-34.5 -12.5q-15 0 -26 9t-11 27z" />
    <glyph glyph-name="aring" unicode="&#xe5;" 
d="M512 396l17 98h63q-22 -125 -43.5 -247t-43.5 -247h-62l18 97q-21 -27 -47 -47.5t-54 -33.5t-57 -19.5t-57 -7.5q-54 1 -90.5 16t-64 43t-42.5 67.5t-15 88.5q0 67 25 122t67 94t97 60t114 21q28 0 55.5 -6.5t51 -19.5t41.5 -33t27 -46zM328 440q-44 0 -84.5 -16.5
t-72 -46.5t-50.5 -71.5t-19 -90.5q0 -74 36.5 -118t116.5 -44q64 0 112 28.5t77 71.5t38.5 93.5t-3.5 93.5t-50 71.5t-101 28.5zM279.668 639.768q0 26.5215 11.4668 46.4121t29.1455 33.1514q17.6777 13.2607 40.1338 19.8906q22.4551 6.62988 45.3887 6.62988
q18.1562 0 34.8789 -4.8623t29.6221 -14.1445q12.9004 -9.28223 20.5449 -23.8682q7.64453 -14.5869 7.64453 -33.1514q0 -25.6377 -10.5107 -45.5283q-10.5117 -19.8906 -28.1895 -33.5928t-41.0898 -20.7744q-23.4111 -7.07227 -48.2559 -7.07227
q-40.1338 0 -65.4561 19.8906q-25.3232 19.8906 -25.3232 57.0195zM397.203 705.187q-28.667 0 -45.3896 -15.4707q-16.7217 -15.4707 -20.0664 -34.0352q-3.34473 -18.5654 8.12207 -34.0352q11.4668 -15.4707 39.1777 -15.4707q29.623 0 46.8232 15.4707
q17.2002 15.4697 20.5449 34.0352q3.34473 18.5645 -8.60059 34.0352q-11.9443 15.4707 -40.6113 15.4707z" />
    <glyph glyph-name="ae" unicode="&#xe6;" horiz-adv-x="1022" 
d="M968 219h-431q-3 -39 7.5 -69.5t32.5 -51.5t52.5 -32t67.5 -11q22 0 47 4.5t48.5 13t45 21t37.5 29.5l40 -42q-23 -23 -50.5 -39.5t-57.5 -27.5t-61 -16t-60 -5q-64 0 -107.5 25t-64.5 73l-17 -91h-55l17 97q-42 -55 -100 -81t-114 -26q-46 0 -85 15t-67 42.5t-43.5 67
t-15.5 88.5q0 67 24.5 122t65.5 94t96 60t116 21q58 0 106 -25.5t68 -78.5l16 98h57l-17 -94q41 51 95.5 77t115.5 26q52 0 96 -17t72 -51.5t36 -88.5t-13 -127zM328 439q-44 0 -84.5 -16.5t-72 -46t-50.5 -70.5t-19 -91q0 -74 42 -117.5t111 -43.5q64 0 112.5 28.5t78 71.5
t39 92.5t-4 92.5t-51 71.5t-101.5 28.5zM547 276h372q12 81 -26 124t-130 43q-35 0 -68.5 -11t-62.5 -32.5t-51 -52.5t-34 -71z" />
    <glyph glyph-name="ccedilla" unicode="&#xe7;" horiz-adv-x="517" 
d="M256 3l-23 -56q31 1 50 -10t27 -27.5t7 -37t-8 -38.5q-14 -35 -47.5 -52t-71.5 -15q-32 2 -62 15.5t-42 41.5l39 29q26 -34 68 -36q20 -1 39 7.5t27 25.5q7 14 4.5 27t-13 21.5t-29.5 11t-44 -4.5l-11 9l38 89h52zM447 62q-47 -42 -96.5 -57.5t-100.5 -15.5
q-47 0 -86.5 14.5t-68 41.5t-45 67.5t-16.5 90.5q0 69 24.5 124t65.5 94t96 59.5t117 20.5q50 0 91.5 -17.5t73.5 -55.5l-50 -42q-23 27 -54.5 39.5t-67.5 12.5q-45 0 -86 -15.5t-72.5 -44.5t-50.5 -71t-19 -94q0 -79 42 -119.5t117 -40.5q38 0 76.5 14t70.5 42z" />
    <glyph glyph-name="egrave" unicode="&#xe8;" horiz-adv-x="587" 
d="M533 217h-430q-3 -39 7 -69.5t31 -51.5t51.5 -32t68.5 -11q22 0 47 4.5t49 13t45.5 21t37.5 29.5l41 -41q-23 -23 -50.5 -40t-58 -28.5t-62 -17t-60.5 -5.5q-49 0 -88.5 15t-68 42.5t-44 66.5t-15.5 88q0 64 23 119t63.5 95t95.5 63t120 23q55 0 100 -17t73.5 -52
t36 -88.5t-12.5 -126.5zM111 274h370q13 81 -27.5 124.5t-126.5 43.5q-37 0 -71.5 -10.5t-63 -31.5t-49.5 -52.5t-32 -73.5zM252 700h79l52 -124v-4h-60l-71 126v2z" />
    <glyph glyph-name="eacute" unicode="&#xe9;" horiz-adv-x="587" 
d="M533 217h-430q-3 -39 7 -69.5t31 -51.5t51.5 -32t68.5 -11q22 0 47 4.5t49 13t45.5 21t37.5 29.5l41 -41q-23 -23 -50.5 -40t-58 -28.5t-62 -17t-60.5 -5.5q-49 0 -88.5 15t-68 42.5t-44 66.5t-15.5 88q0 64 23 119t63.5 95t95.5 63t120 23q55 0 100 -17t73.5 -52
t36 -88.5t-12.5 -126.5zM111 274h370q13 81 -27.5 124.5t-126.5 43.5q-37 0 -71.5 -10.5t-63 -31.5t-49.5 -52.5t-32 -73.5zM492 698l-116 -126h-61l1 4l97 124h80z" />
    <glyph glyph-name="ecircumflex" unicode="&#xea;" horiz-adv-x="587" 
d="M533 217h-430q-3 -39 7 -69.5t31 -51.5t51.5 -32t68.5 -11q22 0 47 4.5t49 13t45.5 21t37.5 29.5l41 -41q-23 -23 -50.5 -40t-58 -28.5t-62 -17t-60.5 -5.5q-49 0 -88.5 15t-68 42.5t-44 66.5t-15.5 88q0 64 23 119t63.5 95t95.5 63t120 23q55 0 100 -17t73.5 -52
t36 -88.5t-12.5 -126.5zM111 274h370q13 81 -27.5 124.5t-126.5 43.5q-37 0 -71.5 -10.5t-63 -31.5t-49.5 -52.5t-32 -73.5zM411 704l119 -133l-1 -7h-69l-80 88l-112 -88h-73l1 7l168 133h47z" />
    <glyph glyph-name="edieresis" unicode="&#xeb;" horiz-adv-x="587" 
d="M533 217h-430q-3 -39 7 -69.5t31 -51.5t51.5 -32t68.5 -11q22 0 47 4.5t49 13t45.5 21t37.5 29.5l41 -41q-23 -23 -50.5 -40t-58 -28.5t-62 -17t-60.5 -5.5q-49 0 -88.5 15t-68 42.5t-44 66.5t-15.5 88q0 64 23 119t63.5 95t95.5 63t120 23q55 0 100 -17t73.5 -52
t36 -88.5t-12.5 -126.5zM111 274h370q13 81 -27.5 124.5t-126.5 43.5q-37 0 -71.5 -10.5t-63 -31.5t-49.5 -52.5t-32 -73.5zM209 632q0 25 17 37.5t36 12.5q15 0 25.5 -9t10.5 -26q0 -26 -17.5 -38.5t-34.5 -12.5q-15 0 -26 9t-11 27zM430 632q0 25 17 37.5t36 12.5
q15 0 25.5 -9t10.5 -26q0 -26 -17.5 -38.5t-34.5 -12.5q-15 0 -26 9t-11 27z" />
    <glyph glyph-name="igrave" unicode="&#xec;" horiz-adv-x="225" 
d="M133 580l-46 120v1h76l30 -117l-1 -4h-59zM26 0l87 491h69l-87 -491h-69z" />
    <glyph glyph-name="iacute" unicode="&#xed;" horiz-adv-x="225" 
d="M125 580l1 4l66 117h77v-1l-77 -120h-67zM26 0l87 491h69l-87 -491h-69z" />
    <glyph glyph-name="icircumflex" unicode="&#xee;" horiz-adv-x="225" 
d="M167 702h31l80 -122l-1 -7h-59l-45 68l-70 -68h-62l1 6zM26 0l87 491h69l-87 -491h-69z" />
    <glyph glyph-name="idieresis" unicode="&#xef;" horiz-adv-x="225" 
d="M209 651q0 25 17 37.5t36 12.5q15 0 26 -9.5t11 -26.5q0 -24 -17 -37t-36 -13q-14 0 -25.5 9t-11.5 27zM60 651q0 25 17 37.5t36 12.5q15 0 26 -9.5t11 -26.5q0 -25 -17 -37.5t-36 -12.5q-14 0 -25.5 9t-11.5 27zM26 0l87 491h69l-87 -491h-69z" />
    <glyph glyph-name="eth" unicode="&#xf0;" horiz-adv-x="604" 
d="M255 51q52 0 94 19.5t71 50.5t44.5 70t15.5 78q0 30 -9.5 58.5t-28.5 50.5t-49 35t-70 13q-52 0 -93 -19.5t-69.5 -50t-43.5 -69.5t-15 -78q0 -31 8 -59.5t26 -50.5t47.5 -35t71.5 -13zM320 485q21 1 45 -2t47 -12.5t44.5 -26.5t38.5 -44q-14 61 -45.5 107.5t-69.5 74.5
l-50 -56l-34 26l47 54q-21 14 -45 22.5t-47 13.5l26 57q32 -10 59.5 -22t50.5 -26l54 61l34 -27l-51 -58q70 -56 100.5 -133.5t30.5 -161.5q0 -79 -23 -142.5t-64 -108t-97.5 -68.5t-124.5 -24q-56 0 -96 17.5t-66.5 46.5t-39 67t-12.5 79q0 51 19.5 101t56.5 90t90.5 66
t121.5 29z" />
    <glyph glyph-name="ntilde" unicode="&#xf1;" horiz-adv-x="607" 
d="M416 0l48 276q14 80 -18 121t-115 41q-36 0 -68 -13t-57.5 -36t-43 -54t-23.5 -67l-46 -268h-67l86 493h64l-13 -83q40 48 89 69.5t100 21.5q48 0 86 -14t62 -42.5t33 -70.5t-1 -97l-48 -277h-68zM221.416 624.979q14.9395 36.2393 45.3164 53.4287
q30.377 17.1904 64.2402 10.6855q14.9395 -2.78711 31.8711 -12.0791t33.3652 -14.8672t31.8711 -1.8584t28.3848 27.876l41.8311 -16.7256q-15.9355 -40.8848 -46.8105 -55.752t-60.7539 -8.36328q-15.9355 4.64648 -33.3652 13.9385t-34.3613 13.9385
q-16.9316 4.64551 -32.3691 0.463867q-15.4375 -4.18066 -27.3887 -27.4111z" />
    <glyph glyph-name="ograve" unicode="&#xf2;" horiz-adv-x="602" 
d="M338 501q48 0 87 -15.5t67 -44t43.5 -67.5t15.5 -87q0 -66 -24 -120.5t-65.5 -93.5t-96.5 -61t-117 -23q-48 1 -87 16t-67.5 43t-44 67t-15.5 87q0 65 24 120t65 94.5t96.5 62t118.5 22.5zM331 440q-47 0 -88.5 -17.5t-72.5 -48.5t-49.5 -73t-19.5 -90q-2 -72 39.5 -115
t113.5 -43q48 0 89 16.5t72 46.5t49 71t19 91q1 36 -9 65.5t-29.5 51t-48.5 33.5t-65 12zM257 700.398h79l52 -119.996v-3.87109h-60l-71 121.932v1.93555z" />
    <glyph glyph-name="oacute" unicode="&#xf3;" horiz-adv-x="602" 
d="M338 501q48 0 87 -15.5t67 -44t43.5 -67.5t15.5 -87q0 -66 -24 -120.5t-65.5 -93.5t-96.5 -61t-117 -23q-48 1 -87 16t-67.5 43t-44 67t-15.5 87q0 65 24 120t65 94.5t96.5 62t118.5 22.5zM331 440q-47 0 -88.5 -17.5t-72.5 -48.5t-49.5 -73t-19.5 -90q-2 -72 39.5 -115
t113.5 -43q48 0 89 16.5t72 46.5t49 71t19 91q1 36 -9 65.5t-29.5 51t-48.5 33.5t-65 12zM485.074 698.969l-111.858 -117.871h-58.8223l0.964844 3.74219l93.5361 116h77.1436z" />
    <glyph glyph-name="ocircumflex" unicode="&#xf4;" horiz-adv-x="602" 
d="M338 501q48 0 87 -15.5t67 -44t43.5 -67.5t15.5 -87q0 -66 -24 -120.5t-65.5 -93.5t-96.5 -61t-117 -23q-48 1 -87 16t-67.5 43t-44 67t-15.5 87q0 65 24 120t65 94.5t96.5 62t118.5 22.5zM331 440q-47 0 -88.5 -17.5t-72.5 -48.5t-49.5 -73t-19.5 -90q-2 -72 39.5 -115
t113.5 -43q48 0 89 16.5t72 46.5t49 71t19 91q1 36 -9 65.5t-29.5 51t-48.5 33.5t-65 12zM405 708l119 -133l-1 -7h-69l-80 88l-112 -88h-73l1 7l168 133h47z" />
    <glyph glyph-name="otilde" unicode="&#xf5;" horiz-adv-x="602" 
d="M338 501q48 0 87 -15.5t67 -44t43.5 -67.5t15.5 -87q0 -66 -24 -120.5t-65.5 -93.5t-96.5 -61t-117 -23q-48 1 -87 16t-67.5 43t-44 67t-15.5 87q0 65 24 120t65 94.5t96.5 62t118.5 22.5zM331 440q-47 0 -88.5 -17.5t-72.5 -48.5t-49.5 -73t-19.5 -90q-2 -72 39.5 -115
t113.5 -43q48 0 89 16.5t72 46.5t49 71t19 91q1 36 -9 65.5t-29.5 51t-48.5 33.5t-65 12zM236.584 641.99q15.0605 37.6191 45.6836 55.4639t64.7598 11.0928q15.0605 -2.89355 32.1289 -12.5391q17.0684 -9.64648 33.6348 -15.4336q16.5664 -5.78809 32.1289 -1.92969
t28.6152 28.9375l42.1689 -17.3623q-16.0645 -42.4424 -47.1895 -57.876t-61.2461 -8.68164q-16.0645 4.82324 -33.6348 14.4688q-17.5703 9.64648 -34.6387 14.4697t-32.6309 0.482422t-27.6113 -28.4561z" />
    <glyph glyph-name="odieresis" unicode="&#xf6;" horiz-adv-x="602" 
d="M338 501q48 0 87 -15.5t67 -44t43.5 -67.5t15.5 -87q0 -66 -24 -120.5t-65.5 -93.5t-96.5 -61t-117 -23q-48 1 -87 16t-67.5 43t-44 67t-15.5 87q0 65 24 120t65 94.5t96.5 62t118.5 22.5zM331 440q-47 0 -88.5 -17.5t-72.5 -48.5t-49.5 -73t-19.5 -90q-2 -72 39.5 -115
t113.5 -43q48 0 89 16.5t72 46.5t49 71t19 91q1 36 -9 65.5t-29.5 51t-48.5 33.5t-65 12zM208 629q0 25 17 37.5t36 12.5q15 0 25.5 -9t10.5 -26q0 -26 -17.5 -38.5t-34.5 -12.5q-15 0 -26 9t-11 27zM429 629q0 25 17 37.5t36 12.5q15 0 25.5 -9t10.5 -26q0 -26 -17.5 -38.5
t-34.5 -12.5q-15 0 -26 9t-11 27z" />
    <glyph glyph-name="divide" unicode="&#xf7;" horiz-adv-x="559" 
d="M86 361h409l-11 -61h-409zM269 479q0 25 17 37.5t36 12.5q15 0 25.5 -9t10.5 -26q0 -26 -17.5 -38.5t-34.5 -12.5q-15 0 -26 9t-11 27zM214 157q0 25 17 37.5t36 12.5q15 0 25.5 -9t10.5 -26q0 -26 -17.5 -38.5t-34.5 -12.5q-15 0 -26 9t-11 27z" />
    <glyph glyph-name="oslash" unicode="&#xf8;" horiz-adv-x="598" 
d="M93 -57h-66l462 599h67zM338 501q48 0 87 -15.5t67 -44t43.5 -67.5t15.5 -87q0 -66 -24 -120.5t-65.5 -93.5t-96.5 -61t-117 -23q-48 1 -87 16t-67.5 43t-44 67t-15.5 87q0 65 24 120t65 94.5t96.5 62t118.5 22.5zM331 440q-47 0 -88.5 -17.5t-72.5 -48.5t-49.5 -73
t-19.5 -90q-2 -72 39.5 -115t113.5 -43q48 0 89 16.5t72 46.5t49 71t19 91q1 36 -9 65.5t-29.5 51t-48.5 33.5t-65 12z" />
    <glyph glyph-name="ugrave" unicode="&#xf9;" horiz-adv-x="604" 
d="M171 494l-49 -277q-14 -77 17 -119t115 -42q36 0 68 13t57.5 36t43.5 53.5t24 66.5l47 269h67l-87 -494h-62l13 83q-41 -50 -85.5 -70t-106.5 -23q-53 2 -88 17t-58.5 44t-32 70.5t0.5 94.5l49 278h67zM268 700h79l52 -124v-4h-60l-71 126v2z" />
    <glyph glyph-name="uacute" unicode="&#xfa;" horiz-adv-x="604" 
d="M171 494l-49 -277q-14 -77 17 -119t115 -42q36 0 68 13t57.5 36t43.5 53.5t24 66.5l47 269h67l-87 -494h-62l13 83q-41 -50 -85.5 -70t-106.5 -23q-53 2 -88 17t-58.5 44t-32 70.5t0.5 94.5l49 278h67zM480 698l-116 -126h-61l1 4l97 124h80z" />
    <glyph glyph-name="ucircumflex" unicode="&#xfb;" horiz-adv-x="604" 
d="M171 494l-49 -277q-14 -77 17 -119t115 -42q36 0 68 13t57.5 36t43.5 53.5t24 66.5l47 269h67l-87 -494h-62l13 83q-41 -50 -85.5 -70t-106.5 -23q-53 2 -88 17t-58.5 44t-32 70.5t0.5 94.5l49 278h67zM401.225 703.691l114.961 -128.219l-0.96582 -6.74805h-66.6582
l-77.2852 84.8359l-108.199 -84.8359h-70.5225l0.96582 6.74805l162.299 128.219h45.4053z" />
    <glyph glyph-name="udieresis" unicode="&#xfc;" horiz-adv-x="604" 
d="M171 494l-49 -277q-14 -77 17 -119t115 -42q36 0 68 13t57.5 36t43.5 53.5t24 66.5l47 269h67l-87 -494h-62l13 83q-41 -50 -85.5 -70t-106.5 -23q-53 2 -88 17t-58.5 44t-32 70.5t0.5 94.5l49 278h67zM215 636q0 25 17 37.5t36 12.5q15 0 25.5 -9t10.5 -26
q0 -26 -17.5 -38.5t-34.5 -12.5q-15 0 -26 9t-11 27zM436 636q0 25 17 37.5t36 12.5q15 0 25.5 -9t10.5 -26q0 -26 -17.5 -38.5t-34.5 -12.5q-15 0 -26 9t-11 27z" />
    <glyph glyph-name="yacute" unicode="&#xfd;" horiz-adv-x="605" 
d="M171 494l-49 -277q-14 -78 17.5 -120.5t113.5 -41.5q36 0 68 13t58 36t44 54t24 67l47 269h67l-88 -511q-11 -61 -36 -106t-60.5 -74t-80 -43.5t-94.5 -14.5q-103 0 -150 47.5t-38 132.5h62q-6 -67 30 -92t107 -25q33 0 64.5 10t57.5 31t45 54t27 80l18 100
q-39 -50 -89 -70t-102 -21q-48 0 -85.5 15t-61.5 44t-32.5 70.5t0.5 94.5l49 278h67zM461.519 698.593l-109.373 -118.887h-57.5146l0.942383 3.77441l91.458 116.999h75.4297z" />
    <glyph glyph-name="thorn" unicode="&#xfe;" horiz-adv-x="636" 
d="M287 55q44 0 85 15t72.5 43.5t51 71t20.5 98.5q1 38 -10 66.5t-31.5 48t-49 29.5t-62.5 10q-45 0 -85.5 -17t-72 -47t-50 -70.5t-19.5 -86.5q-1 -35 9.5 -64.5t30.5 -51t48 -33.5t63 -12zM-11 -206l160 905h65l-52 -299q38 52 96.5 77t123.5 25q44 -2 81.5 -16
t64.5 -40.5t42 -65t15 -87.5q0 -72 -24.5 -128.5t-66 -95t-96 -59t-114.5 -20.5q-57 0 -105.5 25t-69.5 82l-54 -303h-66z" />
    <glyph glyph-name="ydieresis" unicode="&#xff;" horiz-adv-x="605" 
d="M171 494l-49 -277q-14 -78 17.5 -120.5t113.5 -41.5q36 0 68 13t58 36t44 54t24 67l47 269h67l-88 -511q-11 -61 -36 -106t-60.5 -74t-80 -43.5t-94.5 -14.5q-103 0 -150 47.5t-38 132.5h62q-6 -67 30 -92t107 -25q33 0 64.5 10t57.5 31t45 54t27 80l18 100
q-39 -50 -89 -70t-102 -21q-48 0 -85.5 15t-61.5 44t-32.5 70.5t0.5 94.5l49 278h67zM215.35 635.017q0 23.7979 16.1875 35.6963t34.2803 11.8984q14.2832 0 24.2812 -8.56641q9.99805 -8.56738 9.99805 -24.75q0 -24.75 -16.6641 -36.6484
q-16.6631 -11.8984 -32.8506 -11.8984q-14.2832 0 -24.7578 8.56641q-10.4746 8.56738 -10.4746 25.7021zM425.788 635.017q0 23.7979 16.1875 35.6963t34.2793 11.8984q14.2832 0 24.2822 -8.56641q9.99805 -8.56738 9.99805 -24.75q0 -24.75 -16.6641 -36.6484
t-32.8516 -11.8984q-14.2832 0 -24.7568 8.56641q-10.4746 8.56738 -10.4746 25.7021z" />
    <glyph glyph-name="dotlessi" unicode="&#x131;" horiz-adv-x="225" 
d="M26 0l87 491h69l-87 -491h-69z" />
    <glyph glyph-name="OE" unicode="&#x152;" horiz-adv-x="974" 
d="M869 0h-432q-40 -8 -81 -8q-77 0 -133 22.5t-92.5 62t-54.5 93t-18 115.5q0 87 27.5 164t81 134.5t132.5 91t183 33.5q22 0 43 -2.5t38 -5.5h419l-11 -63h-356l-45 -251h336l-11 -64h-336l-45 -258l367 1zM472 645q-83 0 -147 -27t-107.5 -74t-66 -111t-22.5 -138
q0 -121 61 -178.5t194 -57.5q17 0 33.5 2.5t31.5 6.5l101 567q-17 5 -36.5 7.5t-41.5 2.5z" />
    <glyph glyph-name="oe" unicode="&#x153;" horiz-adv-x="1008" 
d="M954 219h-212t-212 -1q-3 -38 7 -68.5t31 -52t51 -33t67 -11.5q22 0 46.5 4.5t47.5 13.5t44 22t37 30l40 -40q-45 -46 -106.5 -69t-120.5 -23q-75 0 -124.5 35t-65.5 97q-41 -65 -102.5 -98t-136.5 -33q-48 0 -87 15t-66.5 43t-43 66.5t-15.5 86.5q0 66 24.5 121t66 94.5
t96.5 62t115 22.5q74 0 122.5 -36t65.5 -102q39 66 100.5 102t138.5 36q54 0 98.5 -17t72 -52t34.5 -88.5t-13 -126.5zM324 441q-45 0 -85.5 -17.5t-71 -48t-48.5 -72t-18 -90.5q0 -72 39.5 -114.5t115.5 -42.5q46 0 86.5 16.5t70.5 46t47.5 70.5t17.5 90q0 36 -11 65.5
t-31.5 51t-49 33.5t-62.5 12zM540 276h362q12 81 -23 124.5t-127 43.5q-35 0 -68 -11t-61 -32.5t-49.5 -53t-33.5 -71.5z" />
    <glyph glyph-name="Scaron" unicode="&#x160;" horiz-adv-x="662" 
d="M588 553q-13 22 -34 39.5t-47.5 30t-57.5 19.5t-62 8q-41 1 -79.5 -7t-69 -26t-48.5 -46t-18 -66q0 -26 14.5 -44.5t39 -31.5t57 -21.5t69.5 -15.5q52 -9 99 -22.5t81 -36t52 -57.5t13 -88q-5 -59 -33 -98t-70 -62t-94 -32t-106 -9q-43 0 -85 9t-79.5 28.5t-67.5 49.5
t-48 72l62 32q32 -66 93.5 -96.5t132.5 -30.5q42 0 81 8t69.5 24.5t50.5 42t24 59.5q4 37 -10.5 61.5t-41.5 40.5t-63.5 25.5t-76.5 16.5q-35 6 -75.5 16.5t-75 28.5t-58 46t-26.5 71q-4 58 20.5 100t66 69t95.5 39t110 11q39 -1 78 -9.5t72.5 -24t59.5 -38.5t41 -54z
M270 917h67l81 -88l113 88h74l-1 -7l-169 -134h-47l-119 134z" />
    <glyph glyph-name="scaron" unicode="&#x161;" horiz-adv-x="495" 
d="M45 126q29 -43 74 -59t91 -17q22 0 47.5 3.5t48 12.5t38.5 25.5t19 43.5q3 26 -9.5 42t-33 25t-44.5 13t-43 7q-32 6 -63 13.5t-55.5 20.5t-39.5 34t-15 53q1 44 21.5 74t52.5 49t72 27t80 8q56 0 99 -16t75 -51l-47 -44q-27 29 -63 39.5t-74 10.5q-29 0 -55.5 -5
t-47.5 -15.5t-33.5 -27.5t-13.5 -41q-1 -20 10 -33t29 -20.5t40.5 -11.5t43.5 -7q40 -6 74 -15.5t58 -25.5t37 -41.5t11 -61.5q-2 -41 -24 -69t-55.5 -45t-73.5 -25t-78 -8q-61 0 -109.5 21t-85.5 66zM171.262 703.452h60.5879l73.248 -79.7715l102.186 79.7715h66.918
l-0.904297 -6.34473l-152.826 -121.471h-42.502l-107.611 121.471z" />
    <glyph glyph-name="Ydieresis" unicode="&#x178;" horiz-adv-x="662" 
d="M332 344l291 356h82v-2l-346 -416l-50 -282h-70l50 282l-196 416v2h79zM269.35 801.017q0 23.7979 16.1875 35.6963t34.2803 11.8984q14.2832 0 24.2812 -8.56641q9.99805 -8.56738 9.99805 -24.75q0 -24.75 -16.6641 -36.6484q-16.6631 -11.8984 -32.8506 -11.8984
q-14.2832 0 -24.7578 8.56641q-10.4746 8.56738 -10.4746 25.7021zM479.788 801.017q0 23.7979 16.1875 35.6963t34.2793 11.8984q14.2832 0 24.2822 -8.56641q9.99805 -8.56738 9.99805 -24.75q0 -24.75 -16.6641 -36.6484t-32.8516 -11.8984q-14.2832 0 -24.7568 8.56641
q-10.4746 8.56738 -10.4746 25.7021z" />
    <glyph glyph-name="Zcaron" unicode="&#x17d;" horiz-adv-x="594" 
d="M132 700h496l-5 -30l-541 -604h434l-11 -66h-535l6 36l534 600h-389zM250 917h67l81 -88l113 88h74l-1 -7l-169 -134h-47l-119 134z" />
    <glyph glyph-name="zcaron" unicode="&#x17e;" horiz-adv-x="462" 
d="M459 494l-4 -24l-364 -408h293l-11 -62h-395l4 25l364 409h-275l11 60h377zM163.792 700.452h60.3828l73.001 -79.7715l101.841 79.7715h66.6924l-0.901367 -6.34473l-152.311 -121.471h-42.3584l-107.248 121.471z" />
    <glyph glyph-name="florin" unicode="&#x192;" horiz-adv-x="457" 
d="M198 431h-122l10 58h122l7 41q14 81 61.5 128t127.5 47q29 0 54.5 -9t45.5 -26l-38 -50q-18 12 -33.5 18.5t-37.5 6.5q-43 0 -72.5 -27.5t-40.5 -87.5l-7 -41h158l-10 -58h-158l-76 -432q-14 -80 -57 -128t-122 -48q-29 0 -51 9t-42 26l36 48q17 -14 30.5 -19t35.5 -5
q43 0 67.5 28.5t35.5 88.5z" />
    <glyph glyph-name="uni0237" unicode="&#x237;" horiz-adv-x="223" 
d="M181 495l-100 -564q-7 -39 -19 -71.5t-32 -56t-49.5 -36t-70.5 -12.5q-26 0 -47 6t-42 20l31 55q31 -18 68 -18q25 0 41.5 8.5t26.5 24t16 36t10 44.5l99 564h68z" />
    <glyph glyph-name="circumflex" unicode="&#x2c6;" horiz-adv-x="421" 
d="M347 704l119 -133l-1 -7h-69l-80 88l-112 -88h-73l1 7l168 133h47z" />
    <glyph glyph-name="caron" unicode="&#x2c7;" horiz-adv-x="404" 
d="M154 701h67l81 -88l113 88h74l-1 -7l-169 -134h-47l-119 134z" />
    <glyph glyph-name="ring" unicode="&#x2da;" horiz-adv-x="397" 
d="M165 597q0 30 12 52.5t30.5 37.5t42 22.5t47.5 7.5q19 0 36.5 -5.5t31 -16t21.5 -27t8 -37.5q0 -29 -11 -51.5t-29.5 -38t-43 -23.5t-50.5 -8q-42 0 -68.5 22.5t-26.5 64.5zM288 671q-30 0 -47.5 -17.5t-21 -38.5t8.5 -38.5t41 -17.5q31 0 49 17.5t21.5 38.5t-9 38.5
t-42.5 17.5z" />
    <glyph glyph-name="tilde" unicode="&#x2dc;" horiz-adv-x="336" 
d="M145 650q15 39 45.5 57.5t64.5 11.5q15 -3 32 -13t33.5 -16t32 -2t28.5 30l42 -18q-16 -44 -47 -60t-61 -9q-16 5 -33.5 15t-34.5 15t-32.5 0.5t-27.5 -29.5z" />
    <glyph glyph-name="endash" unicode="&#x2013;" horiz-adv-x="595" 
d="M75 317h452l-11 -61h-452z" />
    <glyph glyph-name="emdash" unicode="&#x2014;" horiz-adv-x="701" 
d="M75 316h557l-11 -61h-557z" />
    <glyph glyph-name="quoteleft" unicode="&#x2018;" horiz-adv-x="224" 
d="M169 522h-75l95 179h57z" />
    <glyph glyph-name="quoteright" unicode="&#x2019;" horiz-adv-x="223" 
d="M176 701h74l-95 -183h-57z" />
    <glyph glyph-name="quotesinglbase" unicode="&#x201a;" horiz-adv-x="238" 
d="M50 72h74l-95 -183h-57z" />
    <glyph glyph-name="quotedblleft" unicode="&#x201c;" horiz-adv-x="364" 
d="M305 516h-74l97 182h57zM169 516h-75l97 182h57z" />
    <glyph glyph-name="quotedblright" unicode="&#x201d;" horiz-adv-x="358" 
d="M175 701h74l-94 -177h-57zM312 701h74l-94 -177h-57z" />
    <glyph glyph-name="quotedblbase" unicode="&#x201e;" horiz-adv-x="367" 
d="M50 72h66l-89 -183h-55zM184 72h69l-94 -183h-53z" />
    <glyph glyph-name="dagger" unicode="&#x2020;" horiz-adv-x="562" 
d="M353 505h211l-11 -63h-211l-101 -570h-70l101 570h-211l11 63h211l34 195h70z" />
    <glyph glyph-name="daggerdbl" unicode="&#x2021;" horiz-adv-x="604" 
d="M374 506h211l-12 -63h-211l-46 -264h211l-11 -62h-211l-44 -247h-70l44 247h-211l11 62h211l46 264h-211l12 63h211l34 194h70z" />
    <glyph glyph-name="bullet" unicode="&#x2022;" horiz-adv-x="388" 
d="M174 179q-40 0 -65 23.5t-25 62.5q0 27 10 49.5t27.5 38t40 24.5t48.5 9q39 0 63.5 -23.5t24.5 -63.5q0 -27 -10 -49t-27 -37.5t-39.5 -24.5t-47.5 -9z" />
    <glyph glyph-name="ellipsis" unicode="&#x2026;" horiz-adv-x="624" 
d="M23 33q0 28 19 41.5t39 13.5q17 0 28 -9.5t11 -29.5q0 -27 -18 -41t-38 -14q-16 0 -28.5 9.5t-12.5 29.5zM220 33q0 28 19 41.5t39 13.5q17 0 28 -9.5t11 -29.5q0 -27 -18 -41t-38 -14q-16 0 -28.5 9.5t-12.5 29.5zM419 33q0 28 19 41.5t39 13.5q17 0 28 -9.5t11 -29.5
q0 -27 -18 -41t-38 -14q-16 0 -28.5 9.5t-12.5 29.5z" />
    <glyph glyph-name="perthousand" unicode="&#x2030;" horiz-adv-x="1146" 
d="M721 700l-575 -700h-73l576 700h72zM267 699q52 0 82.5 -22.5t42 -56t5 -72.5t-30 -72.5t-62 -56t-90.5 -22.5q-34 0 -59 10.5t-41 28t-23.5 40.5t-7.5 48q0 31 12.5 62t36 56t57.5 41t78 16zM257 640q-27 0 -48 -9.5t-35.5 -24.5t-22 -34t-7.5 -38q0 -31 19.5 -54.5
t61.5 -23.5q26 0 46.5 9.5t35 24.5t22 34t7.5 38q0 30 -19 54t-60 24zM577 294q52 0 82.5 -22.5t42 -56t5 -72.5t-30 -72.5t-62 -56t-90.5 -22.5q-34 0 -59 10.5t-41 28t-23.5 40.5t-7.5 48q0 31 12.5 62t36 56t57.5 41t78 16zM566 235q-26 0 -47 -9.5t-35.5 -24.5t-22 -34
t-7.5 -38q0 -31 19.5 -54.5t61.5 -23.5q25 0 46 9.5t35 24.5t22 34t8 38q0 30 -19 54t-61 24zM955 294q52 0 82.5 -22.5t42 -56t5 -72.5t-30 -72.5t-62 -56t-90.5 -22.5q-34 0 -59 10.5t-41 28t-23.5 40.5t-7.5 48q0 31 12.5 62t36 56t57.5 41t78 16zM944 235
q-26 0 -47 -9.5t-35.5 -24.5t-22 -34t-7.5 -38q0 -31 19.5 -54.5t61.5 -23.5q25 0 46 9.5t35 24.5t22 34t8 38q0 30 -19 54t-61 24z" />
    <glyph glyph-name="guilsinglleft" unicode="&#x2039;" horiz-adv-x="308" 
d="M226 518h71q-1 -2 -1 -4l-174 -216q23 -51 45.5 -101t45.5 -101l6 -18h-71l-100 220z" />
    <glyph glyph-name="guilsinglright" unicode="&#x203a;" horiz-adv-x="310" 
d="M262 296l-178 -221h-71l175 221l-98 216q0 2 1 3h71z" />
    <glyph glyph-name="Euro" unicode="&#x20ac;" horiz-adv-x="606" 
d="M519 12q-32 -11 -64 -16.5t-64 -5.5q-77 0 -132 19.5t-90 54.5t-52 85t-18 111h-65l10 58h57q0 5 1.5 14t2.5 14q2 8 3.5 15.5t3.5 15.5h-57l10 57h66q20 58 54.5 108.5t83 87.5t111 58t138.5 21q52 0 100 -15l-30 -58q-19 6 -39.5 8.5t-41.5 2.5q-119 0 -192 -52.5
t-115 -160.5h264l-25 -57h-262q-2 -7 -3.5 -15t-3.5 -15q-1 -5 -2.5 -14.5t-1.5 -14.5h248l-23 -58h-223q3 -100 60 -152t175 -52q52 0 107 19z" />
    <glyph glyph-name="trademark" unicode="&#x2122;" horiz-adv-x="787" 
d="M232 657h-111l8 43h273l-8 -43h-113l-42 -237h-49zM454 700h46l89 -147l142 147h44l-50 -280h-49l36 201l-131 -131h-9l-83 133l-36 -203h-49z" />
    <glyph glyph-name="minus" unicode="&#x2212;" horiz-adv-x="531" 
d="M86 360h379l-11 -61h-379z" />
    </font>
</defs>
</svg>
